<mxfile host="app.diagrams.net" modified="2023-10-26T09:37:37.624Z" agent="Mozilla/5.0 (Windows NT 10.0; Win64; x64) AppleWebKit/537.36 (KHTML, like Gecko) Chrome/118.0.0.0 Safari/537.36 Edg/118.0.2088.61" etag="c7aaQYHl_qBnlZqpicLz" version="22.0.8" type="device">
  <diagram name="Page-1" id="8PsKX4Oc-MI7gZbU_MNd">
    <mxGraphModel dx="1386" dy="905" grid="1" gridSize="10" guides="1" tooltips="1" connect="1" arrows="1" fold="1" page="1" pageScale="1" pageWidth="600" pageHeight="400" background="#ffffff" math="0" shadow="0">
      <root>
        <mxCell id="0" />
        <mxCell id="1" parent="0" />
        <mxCell id="5MfLdPhbdqmFTjfEvSjL-3" value="&lt;font style=&quot;font-size: 14px;&quot;&gt;&lt;b&gt;JSON Schema /&lt;br&gt;&amp;nbsp;Pydantic Models&lt;/b&gt;&lt;br&gt;&lt;/font&gt;&lt;br&gt;&lt;div style=&quot;text-align: left;&quot;&gt;&lt;span style=&quot;background-color: initial;&quot;&gt;&lt;font color=&quot;#4d4d4d&quot;&gt;class AnswerFormat:&lt;/font&gt;&lt;/span&gt;&lt;/div&gt;&lt;div style=&quot;text-align: left;&quot;&gt;&lt;span style=&quot;background-color: initial;&quot;&gt;&lt;font color=&quot;#4d4d4d&quot;&gt;&amp;nbsp; &amp;nbsp; first_name: str&lt;/font&gt;&lt;/span&gt;&lt;/div&gt;&lt;div style=&quot;text-align: left;&quot;&gt;&lt;span style=&quot;background-color: initial;&quot;&gt;&lt;font color=&quot;#4d4d4d&quot;&gt;&amp;nbsp; &amp;nbsp; last_name: str&lt;/font&gt;&lt;/span&gt;&lt;/div&gt;&lt;div style=&quot;text-align: left;&quot;&gt;&lt;span style=&quot;background-color: initial;&quot;&gt;&lt;font color=&quot;#4d4d4d&quot;&gt;&amp;nbsp; &amp;nbsp; year_of_birth: int&lt;/font&gt;&lt;/span&gt;&lt;/div&gt;" style="rounded=1;whiteSpace=wrap;html=1;" parent="1" vertex="1">
          <mxGeometry x="18" y="89" width="160" height="120" as="geometry" />
        </mxCell>
        <mxCell id="5MfLdPhbdqmFTjfEvSjL-4" value="&lt;span style=&quot;font-size: 14px;&quot;&gt;&lt;b&gt;Regular Expressions&lt;/b&gt;&lt;/span&gt;&lt;br&gt;&lt;div style=&quot;text-align: left;&quot;&gt;&lt;br&gt;&lt;/div&gt;&lt;div style=&quot;text-align: left;&quot;&gt;&lt;font color=&quot;#4d4d4d&quot;&gt;Dimensions: &lt;br&gt;(\d)+ x (\d)+ mm&lt;br&gt;&lt;br&gt;&lt;/font&gt;&lt;/div&gt;&lt;div style=&quot;text-align: left;&quot;&gt;&lt;font color=&quot;#4d4d4d&quot;&gt;Dates:&amp;nbsp;&lt;/font&gt;&lt;/div&gt;&lt;font color=&quot;#4d4d4d&quot;&gt;([0-9]{2})\\([0-9]{2})\\([0-9]{4})&lt;/font&gt;" style="rounded=1;whiteSpace=wrap;html=1;" parent="1" vertex="1">
          <mxGeometry x="17" y="235" width="160" height="120" as="geometry" />
        </mxCell>
        <mxCell id="5MfLdPhbdqmFTjfEvSjL-5" value="" style="endArrow=classic;html=1;rounded=0;exitX=1;exitY=0.5;exitDx=0;exitDy=0;entryX=0;entryY=0.5;entryDx=0;entryDy=0;" parent="1" source="5MfLdPhbdqmFTjfEvSjL-4" target="5MfLdPhbdqmFTjfEvSjL-7" edge="1">
          <mxGeometry width="50" height="50" relative="1" as="geometry">
            <mxPoint x="315" y="399" as="sourcePoint" />
            <mxPoint x="295" y="229" as="targetPoint" />
          </mxGeometry>
        </mxCell>
        <mxCell id="5MfLdPhbdqmFTjfEvSjL-6" value="" style="endArrow=classic;html=1;rounded=0;exitX=1;exitY=0.5;exitDx=0;exitDy=0;entryX=0;entryY=0.5;entryDx=0;entryDy=0;" parent="1" source="5MfLdPhbdqmFTjfEvSjL-3" target="5MfLdPhbdqmFTjfEvSjL-7" edge="1">
          <mxGeometry width="50" height="50" relative="1" as="geometry">
            <mxPoint x="315" y="399" as="sourcePoint" />
            <mxPoint x="275" y="229" as="targetPoint" />
          </mxGeometry>
        </mxCell>
        <mxCell id="5MfLdPhbdqmFTjfEvSjL-7" value="&lt;b style=&quot;&quot;&gt;&lt;font style=&quot;&quot;&gt;&lt;span style=&quot;font-size: 24px;&quot;&gt;LM Format &lt;/span&gt;&lt;br&gt;&lt;span style=&quot;font-size: 24px;&quot;&gt;Enforcer&lt;/span&gt;&lt;br&gt;&lt;font style=&quot;font-size: 18px;&quot;&gt;+&lt;/font&gt;&lt;/font&gt;&lt;/b&gt;&lt;font color=&quot;#666666&quot;&gt;&lt;br&gt;&lt;br&gt;&lt;br&gt;&lt;br&gt;&lt;/font&gt;" style="ellipse;whiteSpace=wrap;html=1;aspect=fixed;" parent="1" vertex="1">
          <mxGeometry x="213" y="135" width="198" height="198" as="geometry" />
        </mxCell>
        <mxCell id="5MfLdPhbdqmFTjfEvSjL-9" value="" style="endArrow=classic;html=1;rounded=0;exitX=1;exitY=0.5;exitDx=0;exitDy=0;entryX=0;entryY=0.5;entryDx=0;entryDy=0;" parent="1" source="5MfLdPhbdqmFTjfEvSjL-7" target="5MfLdPhbdqmFTjfEvSjL-10" edge="1">
          <mxGeometry width="50" height="50" relative="1" as="geometry">
            <mxPoint x="315" y="399" as="sourcePoint" />
            <mxPoint x="515" y="229" as="targetPoint" />
          </mxGeometry>
        </mxCell>
        <mxCell id="5MfLdPhbdqmFTjfEvSjL-10" value="&lt;font color=&quot;#4d4d4d&quot;&gt;&lt;br&gt;&amp;nbsp;{ &lt;br&gt;&amp;nbsp; &amp;nbsp;&quot;first_name&quot;: &quot;Michael&quot;, &lt;br&gt;&amp;nbsp; &amp;nbsp;&quot;last_name&quot;: &quot;Jordan&quot;, &lt;br&gt;&amp;nbsp; &amp;nbsp;&quot;year_of_birth&quot;: 1963&lt;br&gt;&amp;nbsp;}&lt;/font&gt;" style="rounded=1;whiteSpace=wrap;html=1;align=left;" parent="1" vertex="1">
          <mxGeometry x="436" y="99" width="150" height="120" as="geometry" />
        </mxCell>
        <mxCell id="5MfLdPhbdqmFTjfEvSjL-12" value="" style="endArrow=classic;html=1;rounded=0;exitX=1;exitY=0.5;exitDx=0;exitDy=0;entryX=0;entryY=0.5;entryDx=0;entryDy=0;" parent="1" source="5MfLdPhbdqmFTjfEvSjL-7" target="5MfLdPhbdqmFTjfEvSjL-13" edge="1">
          <mxGeometry width="50" height="50" relative="1" as="geometry">
            <mxPoint x="426" y="239" as="sourcePoint" />
            <mxPoint x="525" y="169" as="targetPoint" />
          </mxGeometry>
        </mxCell>
        <mxCell id="5MfLdPhbdqmFTjfEvSjL-13" value="&lt;font color=&quot;#4d4d4d&quot;&gt;&lt;br&gt;&amp;nbsp; 120 x 80 mm&lt;br&gt;&lt;br&gt;&amp;nbsp; 04/07/1776&lt;/font&gt;" style="rounded=1;whiteSpace=wrap;html=1;align=left;" parent="1" vertex="1">
          <mxGeometry x="436" y="234" width="150" height="120" as="geometry" />
        </mxCell>
        <mxCell id="5MfLdPhbdqmFTjfEvSjL-14" value="&lt;span style=&quot;border-color: var(--border-color); color: rgb(0, 0, 0); font-family: Helvetica; font-size: 12px; font-style: normal; font-variant-ligatures: normal; font-variant-caps: normal; letter-spacing: normal; orphans: 2; text-align: center; text-indent: 0px; text-transform: none; widows: 2; word-spacing: 0px; -webkit-text-stroke-width: 0px; background-color: rgb(251, 251, 251); text-decoration-thickness: initial; text-decoration-style: initial; text-decoration-color: initial;&quot;&gt;&lt;font style=&quot;border-color: var(--border-color); font-size: 18px;&quot;&gt;&lt;b&gt;LM Format Enforcer - &lt;/b&gt;Guaranteed JSON / Regex compliance with minimal interference on language model freedom&lt;/font&gt;&lt;/span&gt;" style="text;whiteSpace=wrap;html=1;" parent="1" vertex="1">
          <mxGeometry x="30" y="10" width="550" height="50" as="geometry" />
        </mxCell>
        <mxCell id="yNoe0W8MWd9mktTDlJa6-3" value="" style="shape=image;verticalLabelPosition=bottom;labelBackgroundColor=default;verticalAlign=top;aspect=fixed;imageAspect=0;image=data:image/svg+xml,PHN2ZyB4bWxucz0iaHR0cDovL3d3dy53My5vcmcvMjAwMC9zdmciIHZpZXdCb3g9IjAgMCAzNTIgNTkiIGZpbGw9Im5vbmUiIGhlaWdodD0iNTkiIHdpZHRoPSIzNTIiPiYjeGE7ICA8cGF0aCBkPSJNNjQuMDAzIDQzLjM3MmE1LjgzNCA1LjgzNCAwIDAgMC0uOC0xLjc1N2MuMDc4LS4yODMuMTM3LS41Ny4xNzYtLjg2LjI1OC0xLjg0NS0uMzg2LTMuNTMzLTEuNTk5LTQuODQtLjY1Ny0uNzEzLTEuMzYyLTEuMTg0LTIuMTA4LTEuNDczLjQ5LTIuMDguNzM4LTQuMjEuNzM5LTYuMzQ3YTI5LjEyIDI5LjEyIDAgMCAwLS4zMjUtNC4yOCAyNy45MiAyNy45MiAwIDAgMC0xLjg5Ny02LjY2MSAyOC4yOSAyOC4yOSAwIDAgMC0xLjg3Ny0zLjYyNyAyNS4xMDkgMjUuMTA5IDAgMCAwLTEuNTI1LTIuMjQgMjEuMzc3IDIxLjM3NyAwIDAgMC0uODQtMS4wNjQgMjguMDM0IDI4LjAzNCAwIDAgMC0zLjgzNy0zLjgxIDI1LjM4MiAyNS4zODIgMCAwIDAtMS4wNjQtLjgzNUEyOC4zMTUgMjguMzE1IDAgMCAwIDMyLjExOCAwQzE2LjQ5MSAwIDMuODI1IDEyLjU3OCAzLjgyNSAyOC4wOTZjMCAyLjE2NC4yNTIgNC4zMi43NTIgNi40MjYtLjY3MS4yOS0xLjMxNC43NC0xLjkxIDEuMzkzLTEuMjE0IDEuMzA2LTEuODU4IDIuOTg4LTEuNiA0LjgzMi4wMzkuMjkzLjA5OC41ODMuMTc2Ljg2OGE1Ljg0NCA1Ljg0NCAwIDAgMC0uOCAxLjc1N2MtLjM3MiAxLjQwNy0uMjUgMi42NzYuMjI0IDMuNzg4LS41MTUgMS40NTQtLjM4NiAzLjAwMi4yODQgNC4zNDcuNDg4Ljk4MyAxLjE4NyAxLjc0NCAyLjA0NyAyLjQyMyAxLjAyNC44MDggMi4zMDQgMS40OTQgMy44NSAyLjE1MyAxLjg0My43OCA0LjA5MyAxLjUxNCA1LjExNiAxLjc4MyAyLjY0My42OCA1LjE3NyAxLjExIDcuNzQ2IDEuMTMxIDMuNjYuMDM0IDYuODEtLjgyIDkuMDY3LTMuMDA4IDEuMTA4LjEzNSAyLjIyNC4yMDMgMy4zNDEuMjAyYTI5LjMyIDI5LjMyIDAgMCAwIDMuNTMtLjIyYzIuMjUgMi4yIDUuNDE0IDMuMDYzIDkuMDg3IDMuMDI4IDIuNTY4LS4wMiA1LjEwMi0uNDUxIDcuNzM5LTEuMTMyIDEuMDMtLjI2OSAzLjI3OS0xLjAwMiA1LjEyMy0xLjc4MyAxLjU0NS0uNjYgMi44MjYtMS4zNDYgMy44NTYtMi4xNTIuODU0LS42OCAxLjU1Mi0xLjQ0IDIuMDQtMi40MjNhNS41NCA1LjU0IDAgMCAwIC4yOTEtNC4zNDdjLjQ3LTEuMTEyLjU5Mi0yLjM4NC4yMTktMy43OVptLTIuNjIzIDMuNjk0Yy41Mi45NzkuNTUzIDIuMDg0LjA5NSAzLjExNC0uNjk1IDEuNTYtMi40MiAyLjc5LTUuNzczIDQuMTFhNDQuMjE3IDQ0LjIxNyAwIDAgMS00LjAxIDEuMzVjLTIuNzU2LjcxLTUuMjUgMS4wNy03LjQwOCAxLjA3LTMuNTc0IDAtNi4yMzMtLjk3OS03LjkyLTIuOTEzYTI2LjczNyAyNi43MzcgMCAwIDEtOC42MjIuMDVjLTEuNjg5IDEuOTAxLTQuMzMzIDIuODY0LTcuODc3IDIuODY0LTIuMTU5IDAtNC42NTItLjM2LTcuNDA5LTEuMDctLjAxNy0uMDA1LTEuOTI1LS41My00LjAxLTEuMzUxLTMuMzUxLTEuMzItNS4wNzgtMi41NDgtNS43NzItNC4xMS0uNDU4LTEuMDMtLjQyNS0yLjEzNS4wOTQtMy4xMTQuMDQ4LS4wOS4xLS4xOC4xNTUtLjI2NWEzLjkzNSAzLjkzNSAwIDAgMS0uNTM3LTMuMTkxIDMuNTcyIDMuNTcyIDAgMCAxIDEuMjEtMS44OSAzLjkxNyAzLjkxNyAwIDAgMS0uNTM3LTEuNDg5Yy0uMTY2LTEuMTQ2LjIxNy0yLjI5IDEuMDc4LTMuMjIzLjY3Mi0uNzI2IDEuNjItMS4xMjYgMi42Ny0xLjEyNmguMDI5YTI1Ljg5MyAyNS44OTMgMCAwIDEtMS4xOTEtNy43ODdjMC0xNC40MDEgMTEuNzU3LTI2LjA3OCAyNi4yNjEtMjYuMDc4czI2LjI2MSAxMS42NzUgMjYuMjYxIDI2LjA3OGEyNS44NzYgMjUuODc2IDAgMCAxLTEuMTk5IDcuODA3Yy4xMjctLjAxMy4yNTEtLjAxOS4zNzMtLjAxOSAxLjA1IDAgMiAuNCAyLjY3IDEuMTI2Ljg2Mi45MzIgMS4yNDUgMi4wNzcgMS4wNzggMy4yMjNhMy45MTkgMy45MTkgMCAwIDEtLjUzNyAxLjQ4OCAzLjU3IDMuNTcgMCAwIDEgMS4yMSAxLjg5MSAzLjkyMiAzLjkyMiAwIDAgMS0uNTM2IDMuMTljLjA1NS4wODYuMTA3LjE3NC4xNTQuMjY1WiIgZmlsbD0iI2ZmZiIvPiYjeGE7ICA8cGF0aCBkPSJNNjEuMjI2IDQ2LjgwMmEzLjkzNCAzLjkzNCAwIDAgMCAuNTM3LTMuMTkxIDMuNTc0IDMuNTc0IDAgMCAwLTEuMjEtMS44OWMuMjc4LS40NTYuNDYtLjk2Mi41MzctMS40ODkuMTY2LTEuMTQ2LS4yMTctMi4yOS0xLjA3OS0zLjIyMy0uNjctLjcyNi0xLjYyLTEuMTI2LTIuNjctMS4xMjYtLjEyMiAwLS4yNDYuMDA3LS4zNzMuMDE5YTI1Ljg4MiAyNS44ODIgMCAwIDAgMS4xOTctNy44MDZjMC0xNC40MDItMTEuNzU3LTI2LjA3OC0yNi4yNi0yNi4wNzgtMTQuNTAzIDAtMjYuMjYgMTEuNjc1LTI2LjI2IDI2LjA3OGEyNS44OTYgMjUuODk2IDAgMCAwIDEuMTkgNy43ODdoLS4wMjhjLTEuMDUgMC0yIC40LTIuNjcgMS4xMjUtLjg2Mi45MzItMS4yNDUgMi4wNzgtMS4wNzggMy4yMjNhMy45MiAzLjkyIDAgMCAwIC41MzcgMS40ODkgMy41NyAzLjU3IDAgMCAwLTEuMjEgMS44OSAzLjkyNiAzLjkyNiAwIDAgMCAuNTM3IDMuMTkyIDMuNTc1IDMuNTc1IDAgMCAwLS4xNTUuMjY1Yy0uNTE5Ljk3OS0uNTUyIDIuMDg0LS4wOTQgMy4xMTQuNjk1IDEuNTYgMi40MiAyLjc5IDUuNzczIDQuMTFhNDQuMzM0IDQ0LjMzNCAwIDAgMCA0LjAxIDEuMzVjMi43NTYuNzEgNS4yNSAxLjA3IDcuNDA4IDEuMDcgMy41NDQgMCA2LjE4OC0uOTYyIDcuODc3LTIuODY0IDIuODU4LjQ1IDUuNzcuNDM0IDguNjIyLS4wNDkgMS42ODcgMS45MzQgNC4zNDYgMi45MTQgNy45MiAyLjkxNCAyLjE1OSAwIDQuNjUyLS4zNiA3LjQwOS0xLjA3YTQ0LjQ5IDQ0LjQ5IDAgMCAwIDQuMDEtMS4zNTFjMy4zNTEtMS4zMiA1LjA3OC0yLjU1IDUuNzcyLTQuMTEuNDU4LTEuMDMuNDI1LTIuMTM1LS4wOTQtMy4xMTQtLjA0Ny0uMDkxLS4xLS4xOC0uMTU1LS4yNjVabS0zNC42OTIgNC4wNjdjLS4xNDYuMjUzLS4zMDEuNS0uNDY3Ljc0YTQuNzI5IDQuNzI5IDAgMCAxLTEuNjc3IDEuNDhjLTEuMjc0LjY5LTIuODg3LjkzLTQuNTI1LjkzLTIuNTg4IDAtNS4yNDEtLjYwMS02LjcyOC0uOTg0LS4wNzQtLjAxOS05LjExNS0yLjU1NS03Ljk3LTQuNzE0LjE5Mi0uMzYzLjUxLS41MDguOTA4LS41MDggMS42MTIgMCA0LjU0NyAyLjM4MyA1LjgwOCAyLjM4My4yODIgMCAuNDgxLS4xMTkuNTYyLS40MS41MzgtMS45MTQtOC4xNy0yLjcxOS03LjQzNy01LjQ5LjEzLS40OTIuNDgtLjY5Ljk3NC0uNjkgMi4xMzEtLjAwMSA2LjkxNCAzLjcyIDcuOTE0IDMuNzIuMDc3IDAgLjEzMi0uMDIyLjE2Mi0uMDY5bC4wMTMtLjAyMWMuNDctLjc3LjItMS4zMy0zLjAxNy0zLjI4NmwtLjMwOS0uMTg3Yy0zLjU0LTIuMTI3LTYuMDIzLTMuNDA3LTQuNjEtNC45MzUuMTYyLS4xNzYuMzkyLS4yNTQuNjcyLS4yNTQuMzMyIDAgLjczNC4xMSAxLjE3Ny4yOTUgMS44NjkuNzgzIDQuNDYgMi45MTggNS41NDIgMy44NDkuMTcuMTQ3LjM0LjI5NS41MDguNDQ1IDAgMCAxLjM3IDEuNDE1IDIuMTk4IDEuNDE1YS41MDUuNTA1IDAgMCAwIC40NjMtLjI2Yy41ODctLjk4My01LjQ1OC01LjUzMi01Ljc5OS03LjQxLS4yMy0xLjI3LjE2My0xLjkxNS44OS0xLjkxNS4zNDYgMCAuNzY4LjE0NiAxLjIzMy40NCAxLjQ0NS45MSA0LjIzNSA1LjY3IDUuMjU2IDcuNTIzLjM0My42Mi45MjcuODgzIDEuNDU0Ljg4MyAxLjA0NSAwIDEuODYyLTEuMDMyLjA5Ni0yLjM0My0yLjY1NS0xLjk3Mi0xLjcyMy01LjE5Ni0uNDU2LTUuMzk1YTEuMDQgMS4wNCAwIDAgMSAuMTYzLS4wMTJjMS4xNTIgMCAxLjY2IDEuOTcxIDEuNjYgMS45NzFzMS40OSAzLjcxNSA0LjA0OSA2LjI1NGMyLjMyMSAyLjMwNSAyLjY0NiA0LjE5NiAxLjI5MyA2LjU1NVptOC4yNzQuNDM1LS4xMzIuMDE2LS4yMjcuMDI2LS4zNTguMDM1LS4xMTYuMDEtLjEwNy4wMS0uMTUuMDExLS4xNjguMDEyLS4xNjYuMDExLS4wMzcuMDAyLS4xMzEuMDA4LS4wNTYuMDAzLS4xNTUuMDA3LS4xOC4wMDgtLjE2NS4wMDYtLjEwOS4wMDNoLS4wNTZsLS4xMDIuMDAyaC0uMDU0bC0uMTAyLjAwMS0uMTQuMDAyaC0uMTkzYy0uMTUzIDAtLjMwNS0uMDAxLS40NTctLjAwNGwtLjEyMy0uMDAzLS4xMDUtLjAwMy0uMTMtLjAwNC0uMTYyLS4wMDYtLjE0Ni0uMDA2LS4wMzgtLjAwMi0uMTM5LS4wMDctLjExNS0uMDA3LS4wOS0uMDA1YTI1LjYzIDI1LjYzIDAgMCAxLS4zMzgtLjAyM2wtLjExOS0uMDEtLjE0OC0uMDEzYTE3LjA5NSAxNy4wOTUgMCAwIDEtLjQ2Ni0uMDQ1aC0uMDA1YzEuNDItMy4xNDYuNzAyLTYuMDg0LTIuMTY4LTguOTMxLTEuODgyLTEuODY3LTMuMTM0LTQuNjIzLTMuMzk0LTUuMjI4LS41MjUtMS43OTItMS45MTctMy43ODMtNC4yMjgtMy43ODMtLjE5NSAwLS4zOS4wMTYtLjU4My4wNDYtMS4wMTMuMTU4LTEuODk4LjczNy0yLjUyOSAxLjYwOC0uNjgyLS44NDMtMS4zNDUtMS41MTMtMS45NDUtMS44OTEtLjkwNS0uNTctMS44MDctLjg1OS0yLjY4Ni0uODU5LTEuMDk3IDAtMi4wNzguNDQ4LTIuNzYxIDEuMjZsLS4wMTguMDItLjAzOC0uMTYtLjAwMi0uMDA4YTIyLjQ4NCAyMi40ODQgMCAwIDEtLjMyNy0xLjY3YzAtLjAwMyAwLS4wMDctLjAwMi0uMDFsLS4wMi0uMTI4YTIwLjAyIDIwLjAyIDAgMCAxLS4wNTMtLjM3NmwtLjAyMy0uMTcxLS4wMjEtLjE3Mi0uMDE5LS4xNjMtLjAwMi0uMDE0YTI0LjMxNiAyNC4zMTYgMCAwIDEtLjA2NS0uNjY3bC0uMDA3LS4wODUtLjAxLS4xNDZhNS4xMzkgNS4xMzkgMCAwIDEtLjAwOS0uMTJsLS4wMDItLjAyOGExNi4wODYgMTYuMDg2IDAgMCAxLS4wMi0uMzM1bC0uMDA5LS4xNzVMOC4zNzYgMjlsLS4wMDItLjA0Ny0uMDA0LS4xNC0uMDA0LS4xMmMwLS4wNDktLjAwMi0uMDk2LS4wMDMtLjE0NGwtLjAwMi0uMTUxYzAtLjA1IDAtLjEtLjAwMi0uMTV2LS4xNTJDOC4zNiAxNS4xOCAxOC45MDMgNC43MSAzMS45MSA0LjcxczIzLjU1IDEwLjQ3IDIzLjU1IDIzLjM4NXYuMzAybC0uMDAzLjE1YzAgLjA0My0uMDAyLjA4NC0uMDAzLjEyNiAwIC4wMzctLjAwMi4wNzQtLjAwMy4xMSAwIC4wNDctLjAwMy4wOTQtLjAwNC4xNDJ2LjAwM2wtLjAwNy4xNjQtLjAwNi4xNDQtLjAwMi4wMzQtLjAwOC4xNTNjLS4wMTkuMzI4LS4wNDQuNjU1LS4wNzUuOTgzdi4wMDNjLS4wMDUuMDU0LS4wMS4xMDgtLjAxNy4xNjJsLS4wMTQuMTI2LS4wMjcuMjQ4LS4wMTYuMTI2LS4wMi4xNDgtLjAyMi4xNjEtLjAyNi4xOC0uMDIyLjE0Mi0uMDI1LjE2YTcuMTg2IDcuMTg2IDAgMCAxLS4wMjguMTZsLS4wMjguMTU5YTE4LjE1IDE4LjE1IDAgMCAxLS4xNTUuNzkybC0uMDM0LjE1Ny0uMDM1LjE1N2MtLjY2My0uNjQtMS41NC0uOTg4LTIuNTA5LS45ODgtLjg3OCAwLTEuNzgxLjI4OC0yLjY4NS44NTctLjYuMzc5LTEuMjYzIDEuMDQ5LTEuOTQ2IDEuODkxLS42MzItLjg3LTEuNTE3LTEuNDQ5LTIuNTI5LTEuNjA3YTMuNzc0IDMuNzc0IDAgMCAwLS41ODMtLjA0NmMtMi4zMTIgMC0zLjcwMiAxLjk5MS00LjIyOCAzLjc4My0uMjYxLjYwNS0xLjUxNCAzLjM2LTMuMzk3IDUuMjMtMi44NjggMi44MzgtMy41OTEgNS43NjQtMi4xOTQgOC44OTZabTI0LjMxMi02LjI5Ny0uMDA5LjAyN2ExLjY3MyAxLjY3MyAwIDAgMS0uMTU3LjMwN2MtLjA1Mi4wNzctLjExLjE1LS4xNzEuMjItLjAxNC4wMTYtLjAyOC4wMzItLjA0NC4wNDdhMi4yNTggMi4yNTggMCAwIDEtLjA2OS4wN2MtLjQxOC40MTItMS4wNTUuNzczLTEuNzc2IDEuMTA0LS4wODIuMDM3LS4xNjUuMDc0LS4yNDkuMTFsLS4wODMuMDM3YTcuMjc1IDcuMjc1IDAgMCAxLS4xNy4wNzMgOC43NjEgOC43NjEgMCAwIDEtLjE3LjA3MWwtLjE3NC4wNzFjLS40MDYuMTY2LS44MjEuMzI0LTEuMjI2LjQ4bC0uMTc0LjA2Ny0uMTcuMDY2YTM1LjE5IDM1LjE5IDAgMCAwLS4zMzguMTMzbC0uMTY1LjA2Ni0uMTYyLjA2Ni0uMDguMDMzLS4xNTcuMDY2Yy0xLjE5Mi41MDgtMi4wNSAxLjAyNS0xLjg3IDEuNjY2YS42NTYuNjU2IDAgMCAwIC4xMzkuMjU3Yy4yMTIuMjE5LjU5Ny4xODQgMS4wODMuMDEuMDY5LS4wMjQuMTM3LS4wNS4yMDQtLjA3N2wuMDQzLS4wMThjLjExLS4wNDcuMjI5LS4wOTkuMzQ5LS4xNTZsLjA5LS4wNDNjLjU5Ni0uMjkgMS4yNy0uNjc4IDEuOTM4LTEuMDMyLjI2OC0uMTQzLjU0LS4yOC44MTQtLjQwOS42MzMtLjI5NiAxLjIyOC0uNTA2IDEuNzA3LS41MDYuMjI1IDAgLjQyMy4wNDYuNTg4LjE1MWwuMDI4LjAxOGEuODk4Ljg5OCAwIDAgMSAuMjkzLjM0Yy4yMzYuNDQ1LjAzOC45MDctLjQyNSAxLjM2LS40NDUuNDM0LTEuMTM2Ljg2LTEuOTIyIDEuMjU1bC0uMTc3LjA4N2MtMi4zNCAxLjE0MS01LjQwNCAyLTUuNDQ2IDIuMDExLS44MTcuMjEtMS45ODQuNDg2LTMuMy42OTNsLS4xOTUuMDMtLjAzMi4wMDVhMjEuODIgMjEuODIgMCAwIDEtLjg5Ny4xMTdsLS4wMjguMDAzYTIxLjUzIDIxLjUzIDAgMCAxLTEuNjY1LjEyNWgtLjAwOGMtLjIwMS4wMDctLjQwMi4wMTEtLjYwNC4wMTFoLS4yMzJhMTQuNDcgMTQuNDcgMCAwIDEtLjkyLS4wNDFjLS4wMDYgMC0uMDE0IDAtLjAyMS0uMDAyYTEyLjM2IDEyLjM2IDAgMCAxLTEuMTE1LS4xNDJsLS4xMDMtLjAxOS0uMDA3LS4wMDJhOC4yMSA4LjIxIDAgMCAxLS4zMjItLjA2NyA2LjI1NyA2LjI1NyAwIDAgMS0uMTg2LS4wNDRsLS4wMzctLjAxLS4wOS0uMDIzLS4wMTYtLjAwNC0uMDk2LS4wMjgtLjEwNC0uMDMtLjAxMi0uMDA0LS4wOS0uMDI3YTUuNzkgNS43OSAwIDAgMS0uMTAzLS4wMzNsLS4wODMtLjAyNy0uMDYxLS4wMjJhNi44MDUgNi44MDUgMCAwIDEtLjE3Ni0uMDY0bC0uMDU2LS4wMjEtLjA0NS0uMDE4YTcuMjc4IDcuMjc4IDAgMCAxLS4yNjMtLjExbC0uMDU3LS4wMjktLjAxLS4wMDRhNS41MDEgNS41MDEgMCAwIDEtLjE4LS4wODZsLS4wMTMtLjAwNi0uMDU3LS4wM2E1LjAyNSA1LjAyNSAwIDAgMS0uMjk4LS4xNjhsLS4wNTQtLjAzM2EyLjk3IDIuOTcgMCAwIDEtLjA4LS4wNWwtLjA2OS0uMDQ3LS4wNzUtLjA1LS4wNDUtLjAzMmEzLjM3OCAzLjM3OCAwIDAgMS0uMTM5LS4xMDRsLS4wNzItLjA1NWE0Ljg2MyA0Ljg2MyAwIDAgMS0uMDg2LS4wN2wtLjA3LS4wNi0uMDAyLS4wMDJhMy45MDIgMy45MDIgMCAwIDEtLjE0Ny0uMTMzbC0uMDAyLS4wMDNhMi41OTcgMi41OTcgMCAwIDEtLjA3My0uMDcybC0uMDcyLS4wNzItLjA3LS4wNzUtLjA2Ni0uMDc0LS4wMDctLjAwOGEzLjc1NyAzLjc1NyAwIDAgMS0uMzE1LS40MDVsLS4wMzgtLjA1N2E2Ljk4IDYuOTggMCAwIDEtLjE1LS4yMjUgNS43MDYgNS43MDYgMCAwIDEtLjEwNS0uMTY1bC0uMDY0LS4xMDUtLjAwOC0uMDE0LS4wNi0uMTAxYS45MTguOTE4IDAgMCAxLS4wMzItLjA1NWwtLjAzMi0uMDU4LS4wMTgtLjAzLS4wMTEtLjAyYTQuODI1IDQuODI1IDAgMCAxLS4wNjEtLjExM2wtLjAyOC0uMDUtLjAyOC0uMDUyLS4wMjgtLjA1M2E4LjQ0IDguNDQgMCAwIDEtLjE5OC0uNDIybC0uMDIyLS4wNTNjLS4wMTUtLjAzNC0uMDI4LS4wNjktLjA0Mi0uMTAzYTUuMjE2IDUuMjE2IDAgMCAxLS4yNi0uODY0Yy0uMDA0LS4wMTctLjAwOC0uMDM0LS4wMS0uMDVhMy41NDIgMy41NDIgMCAwIDEtLjA0Ni0uMjk4bC0uMDA1LS4wNWEzLjUxIDMuNTEgMCAwIDEtLjAxNi0uMTk3bC0uMDAyLS4wNWEyLjQ3IDIuNDcgMCAwIDEtLjAwMi0uMDk4Yy0uMDE4LTEuMzE4LjY1NC0yLjU4NiAyLjA5LTQuMDEyIDIuNTYtMi41MzggNC4wNS02LjI1MyA0LjA1LTYuMjUzcy4wNC0uMTU2LjEyMy0uMzhhNC4xMzQgNC4xMzQgMCAwIDEgLjIwMS0uNDY2bC4wMTItLjAyNGMuMDUxLS4xMDIuMTA4LS4yMDIuMTY5LS4zbC4wNDMtLjA2N2EyLjI0MyAyLjI0MyAwIDAgMSAuMjMzLS4yOTdsLjAzNy0uMDM4YTEuMzMgMS4zMyAwIDAgMSAuNTA5LS4zNDJsLjAyNC0uMDA4YTEuMTQgMS4xNCAwIDAgMSAuMTA2LS4wMjhsLjAxLS4wMDJhLjk1My45NTMgMCAwIDEgLjEyMi0uMDE2aC4wMDRsLjA2NS0uMDAyYS43OTQuNzk0IDAgMCAxIC4xNjQuMDEyYy4yMy4wMzcuNDUuMTczLjYzOS4zODRhMi4wOTEgMi4wOTEgMCAwIDEgLjI5OC40NDZsLjAzOS4wOGEzLjA5NCAzLjA5NCAwIDAgMSAuMjI0LjczNSAzLjUyNyAzLjUyNyAwIDAgMSAuMDQ2LjcyN2MtLjAxNy40LS4xLjc5NS0uMjQ1IDEuMTdsLS4wNDEuMTAzYTMuMjU4IDMuMjU4IDAgMCAxLS4xNzQuMzU4bC0uMDU4LjEwMmMtLjA1LjA4NS0uMTA0LjE2OS0uMTYyLjI1MmwtLjAzNS4wNWMtLjEzOC4xOS0uMjkuMzY5LS40NTguNTMzYTQuNzgyIDQuNzgyIDAgMCAxLS41MjguNDU0Yy0uMTg3LjEzOC0uMzYyLjI5LS41MjQuNDU2LS40NjcuNDg2LS41NzYuOTE2LS40NzEgMS4yNDJhLjgxLjgxIDAgMCAwIC4xNzYuMjk1bC4wMTcuMDE3LjAxNy4wMTdhLjg4NC44ODQgMCAwIDAgLjA1My4wNDdsLjAxOS4wMTVjLjA0NS4wMzUuMDkzLjA2Ni4xNDMuMDkzbC4wNDQuMDIzYy4wNTQuMDI2LjExLjA0OC4xNjYuMDY2bC4wNDguMDE1LjAyLjAwNS4wMjkuMDA4LjAyMy4wMDYuMDI2LjAwNS4wMjYuMDA2LjAyNS4wMDQuMDU1LjAwOC4wMTguMDAzLjAzMi4wMDMuMDIuMDAyLjAzMy4wMDJoLjAxOWwuMDM0LjAwMmguMTA4bC4wMy0uMDAyLjAzNi0uMDAyLjA0My0uMDA0LjA0LS4wMDVhMS41NzMgMS41NzMgMCAwIDAgLjM5LS4xMDJsLjA1LS4wMmExLjQ4OCAxLjQ4OCAwIDAgMCAuMjQtLjEzYy4wNzEtLjA0Ni4xMzktLjA5OC4yMDEtLjE1NWwuMDQ0LS4wNDFhLjQwNi40MDYgMCAwIDAgLjAyMS0uMDIxbC4wNDEtLjA0M2MuMS0uMTA4LjE4Ni0uMjI4LjI1Ny0uMzU3YTcwLjQ5MSA3MC40OTEgMCAwIDEgMS45MTEtMy4yNDRsLjA5MS0uMTQ1LjA5My0uMTQ2LjEzOS0uMjE4LjA0Ni0uMDcyYy4xNTUtLjI0MS4zMTItLjQ4LjQ3Mi0uNzE4bC4wOTUtLjE0Yy4xOS0uMjguMzgtLjU1Mi41NjgtLjgxbC4wOTMtLjEyOWMuMjA1LS4yOC40MTctLjU1NC42MzgtLjgyMWwuMDg4LS4xMDRjLjAxNS0uMDE4LjAyOC0uMDM1LjA0NC0uMDUybC4wODYtLjA5OS4wNDMtLjA0OC4wODMtLjA5My4wNDItLjA0NmE3LjE3IDcuMTcgMCAwIDEgLjEyMy0uMTI4bC4wOC0uMDgxYy4xNTgtLjE2LjMzMi0uMzA0LjUyLS40MjhsLjA0My0uMDI4Yy4wNDEtLjAyOC4wODQtLjA1NC4xMjktLjA3Ny43MzQtLjQxNCAxLjM0Mi0uNDQ1IDEuNjkzLS4wOTcuMjEyLjIxLjMyOS41Ni4zMjIgMS4wNDVsLS4wMDEuMDY1di4wMjRhLjc5Ni43OTYgMCAwIDEtLjAwNC4wNjdjMCAuMDI4LS4wMDMuMDU1LS4wMDYuMDgzbC0uMDA3LjA3My0uMDAyLjAyMmExLjI4IDEuMjggMCAwIDEtLjAwOC4wNjVjMCAuMDA2IDAgLjAxMy0uMDAzLjAybC0uMDEyLjA4N2ExLjMzMyAxLjMzMyAwIDAgMS0uMDE0LjA4bC0uMDA4LjA0N2ExLjI0NyAxLjI0NyAwIDAgMS0uMDMuMTNjLS4wMjUuMDgtLjA1NC4xNTctLjA4OS4yMzNhMy4zNzkgMy4zNzkgMCAwIDEtLjI2LjQ2NyA3LjAzIDcuMDMgMCAwIDEtLjQxNy41NzhsLS4wNDguMDZhMTUuNjYgMTUuNjYgMCAwIDEtLjUzNS42MjhsLS4wNTguMDY1Yy0uMDc5LjA4Ny0uMTU4LjE3NC0uMjQuMjYybC0uMDYuMDY2LS4xMjUuMTMyYy0uMDQuMDQ1LS4wODMuMDktLjEyNi4xMzRsLS4xMjguMTM0LS4xMy4xMzQtLjEzLjEzNS0uMjY0LjI3Yy0xLjI2IDEuMjgzLTIuNTg4IDIuNTYzLTMuMDM3IDMuMzZhMS42IDEuNiAwIDAgMC0uMDgxLjE2Yy0uMDY0LjE0NS0uMDkxLjI3LS4wNzMuMzdhLjI4LjI4IDAgMCAwIC4wMzUuMDkzLjU4LjU4IDAgMCAwIC4xNDQuMTY0LjUyOC41MjggMCAwIDAgLjMxOC4wOTZoLjAzNWwuMDM2LS4wMDMuMDM3LS4wMDQuMDMtLjAwNC4wMTItLjAwMy4wMjgtLjAwNS4wMDctLjAwMi4wMy0uMDA2LjAxMi0uMDAzYS45MDMuOTAzIDAgMCAwIC4wMzItLjAwOWwuMDM5LS4wMTFhMS41NjggMS41NjggMCAwIDAgLjI4My0uMTE0bC4wNDEtLjAyYy4xLS4wNTEuMTk3LS4xMDcuMjkxLS4xNjdsLjA0Mi0uMDI4YS42NDMuNjQzIDAgMCAwIC4wNDEtLjAyN2wuMDQxLS4wMjguMDIyLS4wMTUuMDYtLjA0MWMuMDU2LS4wMzguMTA4LS4wNzguMTYtLjExN2wuMDA1LS4wMDQuMDgzLS4wNjRjLjExNC0uMDkuMjIyLS4xOC4zMi0uMjY1bC4wNjYtLjA1Ni4wMDYtLjAwNi4wMzQtLjAzLjIxMS0uMTkzLjAyNS0uMDI0LjA1OC0uMDU1LjAzNS0uMDM0LjAxMy0uMDEyLjAwMy0uMDAzLjAzNi0uMDM3LjAyMy0uMDIzLjAwMy0uMDAyLjAxMS0uMDEuMDE0LS4wMTMuMDA0LS4wMDQuMDExLS4wMS4wNjQtLjA1NS4wMzUtLjAzMmMuMDItLjAxNi4wMzgtLjAzMy4wNTYtLjA1bC4wNDItLjAzNy4wMjMtLjAyLjA0NS0uMDM4LjA2NS0uMDU4LjAzNS0uMDMuNDg4LS40MTYuMDc4LS4wNjUuMTI3LS4xMDcuMTMxLS4xMDhjLjE3LS4xNDEuMzU1LS4yOS41NS0uNDQ2bC4xMjctLjEwMmE1OS41ODcgNTkuNTg3IDAgMCAxIC40NzMtLjM2OCAzMS4xNzcgMzEuMTc3IDAgMCAxIDEuMTY5LS44NmwuMTE5LS4wODMuMjUtLjE3LjA3Ni0uMDVjLjE0OC0uMTAxLjMtLjE5OS40NTItLjI5NGwuMDc1LS4wNDcuMDc1LS4wNDcuMjI0LS4xMzYuMDc1LS4wNDQuMTQ4LS4wODUuMTQ2LS4wODQuMDMtLjAxNS4xMTUtLjA2My4xNDMtLjA3Ni4wNzItLjAzNi4wNjktLjAzNS4wNzItLjAzNWE2LjY3OCA2LjY3OCAwIDAgMSAuNjA3LS4yNmwuMTI3LS4wNDUuMTExLS4wMzUuMDEzLS4wMDQuMDU3LS4wMTcuMDA2LS4wMDFjLjA0LS4wMTIuMDgtLjAyMS4xMTgtLjAzaC4wMDNhMi4zNzkgMi4zNzkgMCAwIDEgLjQ5MS0uMDY1aC4wMjZjLjAzNCAwIC4wNjguMDAyLjEwMS4wMDYuMDE1IDAgLjAzLjAwMy4wNDYuMDA1aC4wMDZsLjA0NS4wMDdjLjAxNC4wMDMuMDMuMDA1LjA0My4wMDloLjAwNWEuODE0LjgxNCAwIDAgMSAuMzYuMTg1bC4wMS4wMDguMDE1LjAxNi4wMTUuMDE2YTEuNyAxLjcgMCAwIDEgLjMwNi40NDFsLjAxMi4wMjhhMS4wMTUgMS4wMTUgMCAwIDEgLjAxMy43ODggMS40NCAxLjQ0IDAgMCAxLS4xMDUuMjIgMi41MTcgMi41MTcgMCAwIDEtLjM0Mi40NDhsLS4wMjguMDNhNC4xNTMgNC4xNTMgMCAwIDEtLjEyOS4xM2wtLjA2MS4wNTctLjA2NC4wNTktLjAzMy4wMjlhNi4yNjMgNi4yNjMgMCAwIDEtLjQuMzI2IDEzLjI1NSAxMy4yNTUgMCAwIDEtLjkwMS42M2MtLjI4Ni4xODYtLjU3NC4zNjctLjg2Ni41NDQtLjYxMS4zNzMtMS4yODkuNzcyLTIuMDExIDEuMjA3bC0uMTg4LjExMmMtLjIwNC4xMjQtLjM5OC4yNDMtLjU4LjM1NmwtLjA5MS4wNTctLjE3NC4xMS0uMzQ0LjIyLS4wOTIuMDYxLS4xMzUuMDg4LS4wNDQuMDI4LS4xMzQuMDktLjA3MS4wNDktLjA4My4wNTctLjA3OC4wNTNhMTcuMyAxNy4zIDAgMCAwLS4zNi4yNmwtLjA0Mi4wMzJhOC4zMjEgOC4zMjEgMCAwIDAtLjQ1Ni4zN2wtLjAzOS4wMzYtLjA2NC4wNi0uMDQzLjA0LS4wMi4wMmEzLjYzIDMuNjMgMCAwIDAtLjEzLjEzN2wtLjAyLjAyM2ExLjk0IDEuOTQgMCAwIDAtLjEyLjE1MmwtLjAxNi4wMjJhMS4zMTQgMS4zMTQgMCAwIDAtLjA5Mi4xNTRsLS4wMTUuMDMxLS4wMS4wMjMtLjAwNy4wMTUtLjAwNS4wMTQtLjAwNy4wMTlhLjc5Ljc5IDAgMCAwLS4wNC4xNjFsLS4wMDMuMDItLjAwMi4wMTd2LjA5OGMwIC4wMDggMCAuMDE2LjAwMi4wMjRsLjAwMi4wMTUuMDAzLjAyNS4wMDYuMDM0di4wMDFsLjAwNy4wMzIuMDA5LjAzNGEuODIyLjgyMiAwIDAgMCAuMDIxLjA2NmwuMDE1LjAzOC4wMDMuMDA3LjAxMS4wMjUuMDE2LjAzNWMuMDE3LjAzNS4wMzUuMDcuMDU1LjEwM2wuMDIuMDM2LjAyMS4wMzVhLjEzNi4xMzYgMCAwIDAgLjAxMy4wMTZsLjAwNy4wMDguMDA4LjAwNy4wMDguMDA2YS4xNTMuMTUzIDAgMCAwIC4wMzguMDJsLjAyMi4wMDVjLjE4LjA0LjU0OC0uMTA3IDEuMDM3LS4zNjMuMDI4LS4wMTUuMDU5LS4wMy4wODgtLjA0N2wuMTUtLjA4LjA3Mi0uMDRjLjA1Mi0uMDI4LjEwNS0uMDYuMTU5LS4wOWwuMDk4LS4wNTVjLjY0OC0uMzcgMS40Mi0uODQ1IDIuMjItMS4zMWwuMjI1LS4xMy4xNTEtLjA5NWEyNS4yNTYgMjUuMjU2IDAgMCAxIDEuMjAyLS42NWwuMTQ4LS4wNzVhMTIuNzE2IDEyLjcxNiAwIDAgMSAuODU1LS4zOWwuMTA0LS4wNDIuMDEzLS4wMDVjLjU1MS0uMjE3IDEuMDUxLS4zNSAxLjQ1Ni0uMzUuMDg3LS4wMDIuMTc1LjAwNi4yNjEuMDJoLjAwM2MuMDI3LjAwNS4wNTMuMDEuMDc4LjAxN2guMDA1YS44MTUuODE1IDAgMCAxIC40MTkuMjQzLjg5Mi44OTIgMCAwIDEgLjE4Mi4zMmwuMDI3LjA4OGMuMDY2LjIzNC4wNi40ODItLjAxOS43MTJaIiBmaWxsPSIjRkY5RDAwIi8+JiN4YTsgIDxwYXRoIGNsaXAtcnVsZT0iZXZlbm9kZCIgZD0iTTU1LjQ1NSAyOC4yNDd2LS4xNTFjMC0xMi45MTYtMTAuNTQtMjMuMzg1LTIzLjU0Ni0yMy4zODVTOC4zNTkgMTUuMTggOC4zNTkgMjguMDk2di4xNTFjLjAwMi4wNS4wMDIuMS4wMDIuMTVsLjAwMS4xMTIuMDAxLjA0LjAwMS4wNTUuMDAyLjA4OC4wMDMuMTIuMDA1LjE0MS4wMDIuMDQ3LjAwNi4xNDZ2LjAwN2wuMDA4LjE3di4wMDVsLjAxLjE3NC4wMS4xNjEuMDAyLjAxLjAwOS4xMzh2LjAxMmwuMDExLjEzNC4wMDEuMDA4LjAwNi4wNzdjLjAxOS4yMjMuMDQuNDQ1LjA2NS42NjdsLjAwMi4wMTQuMDE5LjE2My4wMi4xNzIuMDE2LjExNi4wMDcuMDU0Yy4wMTcuMTI2LjAzNS4yNTIuMDU0LjM3N2wuMDAyLjAwOC4wMTguMTE5YTIyLjUgMjIuNSAwIDAgMCAuMzMgMS42ODJ2LjAwN2wuMDEuMDQxLjAyOS4xMTkuMDE3LS4wMmMuNjg0LS44MTIgMS42NjUtMS4yNiAyLjc2Mi0xLjI2Ljg4IDAgMS43ODEuMjkgMi42ODYuODU4LjYuMzc5IDEuMjYyIDEuMDQ5IDEuOTQ1IDEuODkyLjYzMS0uODcxIDEuNTE2LTEuNDUgMi41MjktMS42MDhhMy44IDMuOCAwIDAgMSAuNTgzLS4wNDZjMi4zMSAwIDMuNzAyIDEuOTkxIDQuMjI4IDMuNzgzLjI2LjYwNSAxLjUxMiAzLjM2IDMuNCA1LjIyNSAyLjg3IDIuODQ4IDMuNTg4IDUuNzg1IDIuMTY4IDguOTMxaC4wMDVjLjA5Ni4wMTEuMTk0LjAyMS4yOTEuMDNsLjE3NS4wMTYuMDIuMDAyLjEyOC4wMS4xMTkuMDFjLjExMi4wMDkuMjI1LjAxNy4zMzguMDI0bC4wOS4wMDUuMDcuMDA0LjA0NS4wMDMuMTM5LjAwNy4wMzguMDAyLjE0Ni4wMDYuMTYyLjAwNi4xMy4wMDRoLjAyMmMuMDI3LjAwMi4wNTUuMDAzLjA4My4wMDNoLjAzYy4xODMuMDA1LjM2Ni4wMDcuNTUuMDA3aC4xOTRsLjEzOS0uMDAyLjEwMi0uMDAxaC4wNTRsLjA0Ny0uMDAyaC4xMTFsLjExLS4wMDQuMTYzLS4wMDUuMTgtLjAwOC4xNTYtLjAwNy4wNTYtLjAwNC4wODItLjAwNC4wNDktLjAwMy4wMzctLjAwMi4xNjYtLjAxMS4xNjctLjAxMi4xNTEtLjAxMi4xMDctLjAxLjExNi0uMDFjLjE5Ni0uMDE3LjM5LS4wMzcuNTg1LS4wNmwuMTMyLS4wMTZjLTEuMzk4LTMuMTMzLS42NzQtNi4wNTggMi4xODQtOC44OTQgMS44ODQtMS44NyAzLjEzNi00LjYyNSAzLjM5Ny01LjIzLjUyNi0xLjc5MiAxLjkxNy0zLjc4MyA0LjIyOC0zLjc4My4xOTUgMCAuMzkuMDE1LjU4NC4wNDYgMS4wMTEuMTU4IDEuODk2LjczNiAyLjUyOSAxLjYwNy42ODItLjg0MiAxLjM0NS0xLjUxMyAxLjk0NS0xLjg5MS45MDQtLjU2OSAxLjgwNy0uODU4IDIuNjg1LS44NTguOTY5IDAgMS44NDYuMzQ5IDIuNTA5Ljk4OWwuMDM1LS4xNTcuMDM0LS4xNTYuMDM2LS4xNzJhMzAuMTc1IDMwLjE3NSAwIDAgMCAuMTItLjYyMWwuMDA5LS4wNTguMDE4LS4xMDJjLjAxLS4wNTMuMDItLjEwNi4wMjgtLjE2bC4wMDMtLjAyLjAyMi0uMTQuMDIyLS4xNDF2LS4wMDJjLjAxNi0uMTA0LjAzLS4yMDkuMDQ1LS4zMTNsLjAwMy0uMDI2LjAyLS4xNDguMDE2LS4xMjYuMDI4LS4yNDguMDEtLjEuMDAzLS4wMjYuMDE3LS4xNjJ2LS4wMDRsLjAxMi0uMTI4Yy4wMjItLjI0My4wNC0uNDg4LjA1Ni0uNzMzbC4wMDctLjEyMXYtLjAwMmwuMDA4LS4xNTIuMDAyLS4wMzNjLjAwNS0uMTAzLjAxLS4yMDUuMDEzLS4zMDh2LS4wMDNsLjAwMS0uMDRhMi4yOCAyLjI4IDAgMCAwIC4wMDMtLjEwMnYtLjAxNGMuMDAyLS4wMzIuMDAzLS4wNjQuMDAzLS4wOTdsLjAwMS0uMDI3LjAwMi0uMDk3di0uMDI4Yy4wMDItLjA0LjAwMy0uMDgyLjAwMy0uMTIzdi0uMTUxWk0yNi4wNjggNTEuNjA4YzEuODY1LTIuNzE2IDEuNzMyLTQuNzU0LS44MjYtNy4yOTQtMi41Ni0yLjU0LTQuMDQ5LTYuMjU0LTQuMDQ5LTYuMjU0cy0uNTU2LTIuMTU3LTEuODIzLTEuOTU5Yy0xLjI2OC4xOTgtMi4xOTggMy40MjIuNDU2IDUuMzk1IDIuNjU1IDEuOTc0LS41MjggMy4zMTItMS41NSAxLjQ2LTEuMDIxLTEuODUyLTMuODEtNi42MTMtNS4yNTctNy41MjMtMS40NDYtLjkxLTIuNDYzLS40LTIuMTIyIDEuNDc2LjE3LjkzMiAxLjc0NCAyLjUyMiAzLjIxNSA0LjAwOCAxLjQ5MyAxLjUwNyAyLjg4IDIuOTA2IDIuNTgzIDMuNDAxLS41ODguOTg0LTIuNjYtMS4xNTUtMi42Ni0xLjE1NVM3LjU0OCAzNy4zIDYuMTM2IDM4LjgyOGMtMS4zMDIgMS40MDguNzA2IDIuNjA1IDMuOCA0LjQ1bC44MS40ODVjMy41NCAyLjEyOCAzLjgxNiAyLjY5IDMuMzEzIDMuNDk1LS4xODUuMjk3LTEuMzctLjQxLTIuODI3LTEuMjc4LTIuNDg1LTEuNDgxLTUuNzYtMy40MzQtNi4yMjMtMS42ODYtLjQgMS41MTMgMi4wMSAyLjQ0IDQuMTk1IDMuMjggMS44MjEuNzAxIDMuNDg3IDEuMzQyIDMuMjQxIDIuMjExLS4yNTMuOTAyLTEuNjMuMTUtMy4xMzQtLjY3Mi0xLjY4OS0uOTIzLTMuNTQtMS45MzQtNC4xNDUtLjc5My0xLjE0NCAyLjE1NyA3Ljg5NiA0LjY5NiA3Ljk3IDQuNzE1IDIuOTIyLjc1MiAxMC4zNCAyLjM0NiAxMi45MzItMS40MjdabTEyLjAxNCAwYy0xLjg2NS0yLjcxNi0xLjczMi00Ljc1NC44MjYtNy4yOTQgMi41Ni0yLjU0IDQuMDQ5LTYuMjU0IDQuMDQ5LTYuMjU0cy41NTYtMi4xNTcgMS44MjMtMS45NTljMS4yNjguMTk4IDIuMTk4IDMuNDIyLS40NTYgNS4zOTUtMi42NTUgMS45NzQuNTI4IDMuMzEyIDEuNTUgMS40NiAxLjAyMi0xLjg1MiAzLjgxLTYuNjEzIDUuMjU1LTcuNTIzIDEuNDQ3LS45MSAyLjQ2NC0uNCAyLjEyMyAxLjQ3Ni0uMTcuOTMyLTEuNzQ0IDIuNTIyLTMuMjE2IDQuMDA4LTEuNDkyIDEuNTA3LTIuODc4IDIuOTA2LTIuNTgyIDMuNDAxLjU4OC45ODQgMi42NjEtMS4xNTYgMi42NjEtMS4xNTZzNi40ODctNS44NjIgNy45LTQuMzM1YzEuMyAxLjQwOC0uNzA3IDIuNjA1LTMuOCA0LjQ1LS4yNzEuMTYyLS41NDIuMzIzLS44MTIuNDg2LTMuNTQgMi4xMjctMy44MTUgMi42ODktMy4zMTIgMy40OTQuMTg1LjI5NyAxLjM3LS40MSAyLjgyNy0xLjI3OCAyLjQ4NS0xLjQ4MSA1Ljc2LTMuNDM0IDYuMjIzLTEuNjg2LjQgMS41MTMtMi4wMSAyLjQ0LTQuMTk1IDMuMjgtMS44MjEuNzAxLTMuNDg3IDEuMzQyLTMuMjQyIDIuMjExLjI1NC45MDIgMS42My4xNSAzLjEzNC0uNjcyIDEuNjg4LS45MjMgMy41NC0xLjkzNSA0LjE0NS0uNzkzIDEuMTQ0IDIuMTU4LTcuODk3IDQuNjk1LTcuOTcgNC43MTMtMi45MjEuNzU1LTEwLjM0IDIuMzUtMTIuOTMtMS40MjRaIiBmaWxsLXJ1bGU9ImV2ZW5vZGQiIGZpbGw9IiNGRkQyMUUiLz4mI3hhOyAgPHBhdGggY2xpcC1ydWxlPSJldmVub2RkIiBkPSJNMzkuNTU2IDIxLjczYy4zNjguMTMuNjQxLjUyMi45Ljg5Ni4zNTIuNTA1LjY3OS45NzQgMS4xOC43MWEzLjM3NiAzLjM3NiAwIDAgMCAxLjM5NC0xLjM3OSAzLjM0NiAzLjM0NiAwIDAgMC0xLjA5NS00LjM4NiAzLjQwMyAzLjQwMyAwIDAgMC01LjAxNyAxLjUgMy4zNDcgMy4zNDcgMCAwIDAgLjEzNiAyLjg3M2MuMjMyLjQzNC43NDguMjMgMS4yOTIuMDEzLjQyNy0uMTcuODcyLS4zNDYgMS4yMS0uMjI3Wm0tMTUuOTY0IDBjLS4zNjcuMTMtLjY0LjUyMi0uOS44OTYtLjM1MS41MDUtLjY3OC45NzQtMS4xOC43MWEzLjM3MiAzLjM3MiAwIDAgMS0xLjYtMS44MyAzLjM0MyAzLjM0MyAwIDAgMSAuMDU0LTIuNDI0Yy4zMi0uNzczLjkyLTEuNCAxLjY4LTEuNzU5YTMuNDEgMy40MSAwIDAgMSA0LjA3Mi45MDIgMy4zNDUgMy4zNDUgMCAwIDEgLjM3OCAzLjcyYy0uMjMzLjQzMy0uNzQ5LjIyOS0xLjI5My4wMTMtLjQyNy0uMTctLjg3MS0uMzQ3LTEuMjEtLjIyN1ptMTMuNDk1IDE0LjQyN2MyLjUzLTEuOTggMy40Ni01LjIxMiAzLjQ2LTcuMjAzIDAtMS41NzMtMS4wNjctMS4wNzgtMi43NzMtLjIzOWwtLjA5Ny4wNDdjLTEuNTY3Ljc3MS0zLjY1MiAxLjc5Ny01Ljk0MiAxLjc5N3MtNC4zNzUtMS4wMjYtNS45NDItMS43OTdjLTEuNzYyLS44NjctMi44NjctMS40MS0yLjg2Ny4xOTMgMCAyLjA1NC45ODkgNS40MjYgMy43MDMgNy4zODVhNS44NjEgNS44NjEgMCAwIDEgMS40ODEtMS44ODIgNS45MDcgNS45MDcgMCAwIDEgMi4xMTUtMS4xMzdjLjI3MS0uMDguNTUuMzgyLjgzNi44NTcuMjc2LjQ1Ny41NTcuOTI1Ljg0NC45MjUuMzA1IDAgLjYwNS0uNDYxLjg5OC0uOTExLjMwNi0uNDcuNjA1LS45MjkuODk0LS44MzdhNS44ODUgNS44ODUgMCAwIDEgMy4zOSAyLjgwMloiIGZpbGwtcnVsZT0iZXZlbm9kZCIgZmlsbD0iIzMyMzQzRCIvPiYjeGE7ICA8cGF0aCBkPSJNMzcuMDg3IDM2LjE1NmMtMS4zMTggMS4wMzItMy4wNyAxLjcyMy01LjM1MSAxLjcyMy0yLjE0NCAwLTMuODItLjYxLTUuMTA4LTEuNTRhNS44NTYgNS44NTYgMCAwIDEgMS40ODItMS44ODEgNS45MDYgNS45MDYgMCAwIDEgMi4xMTYtMS4xMzhjLjUzMi0uMTU4IDEuMDk2IDEuNzgyIDEuNjggMS43ODIuNjI0IDAgMS4yMjYtMS45MjcgMS43OS0xLjc0OGE1Ljg4NyA1Ljg4NyAwIDAgMSAzLjM5IDIuODAyWiIgZmlsbD0iI0ZGMzIzRCIvPiYjeGE7ICA8cGF0aCBjbGlwLXJ1bGU9ImV2ZW5vZGQiIGQ9Ik0xNy41NDIgMjQuNTNhMi4yMDkgMi4yMDkgMCAwIDEtMi4wNjcuMjAyIDIuMTk0IDIuMTk0IDAgMCAxLTEuMTkyLTEuMTg0IDIuMTcyIDIuMTcyIDAgMCAxIC4yMDQtMi4wNTIgMi4yIDIuMiAwIDAgMSAuOTg5LS44MDYgMi4yMTcgMi4yMTcgMCAwIDEgMi40LjQ3NSAyLjE4MyAyLjE4MyAwIDAgMSAuNDc3IDIuMzg0Yy0uMTY2LjQtLjQ0OS43NC0uODExLjk4MVptMzEuNTEyIDBhMi4yMSAyLjIxIDAgMCAxLTIuMDY2LjIwMiAyLjE5NyAyLjE5NyAwIDAgMS0xLjE5My0xLjE4NCAyLjE3OCAyLjE3OCAwIDAgMSAuOTA0LTIuNzEzIDIuMjEgMi4yMSAwIDAgMSAzLjI5MiAxLjQ1IDIuMTggMi4xOCAwIDAgMS0uOTM3IDIuMjQ1WiIgZmlsbC1ydWxlPSJldmVub2RkIiBmaWxsPSIjRkZBRDAzIi8+JiN4YTsgIDxwYXRoIGQ9Ik04OC4zODQgNDVWMjAuNzEySDgwLjE1di01LjcwNGgyMy4yNzZ2NS43MDRoLTguMjM0VjQ1aC02LjgwOFptMTcuMjM1IDBWMjIuMTg0aDUuNTJsLjQ2IDQuMDAyaC4xODRjLjgyOC0xLjUzMyAxLjgyNS0yLjY2OCAyLjk5LTMuNDA0IDEuMTY1LS43NjcgMi4zMzEtMS4xNSAzLjQ5Ni0xLjE1LjY0NCAwIDEuMTgxLjA0NiAxLjYxLjEzOGEzLjYxIDMuNjEgMCAwIDEgMS4xMDQuMzIybC0xLjEwNCA1Ljg0MmE4LjQwNSA4LjQwNSAwIDAgMC0xLjE5Ni0uMjc2IDcuOTI2IDcuOTI2IDAgMCAwLTEuMjg4LS4wOTJjLS44NTkgMC0xLjc2My4zMjItMi43MTQuOTY2LS45Mi42MTMtMS42ODcgMS42ODctMi4zIDMuMjJWNDVoLTYuNzYyWm0yMi43NzUuNTUyYy0yLjA4NSAwLTMuNzQxLS42Ni00Ljk2OC0xLjk3OC0xLjIyNi0xLjM1LTEuODQtMi45OS0xLjg0LTQuOTIyIDAtMi4zOTIgMS4wMTItNC4yNjMgMy4wMzYtNS42MTIgMi4wMjQtMS4zNSA1LjI5LTIuMjU0IDkuNzk4LTIuNzE0LS4wNjEtMS4wMTItLjM2OC0xLjgxLS45Mi0yLjM5Mi0uNTIxLS42MTMtMS40MS0uOTItMi42NjgtLjkyLS45NSAwLTEuOTE2LjE4NC0yLjg5OC41NTItLjk4MS4zNjgtMi4wMjQuODc0LTMuMTI4IDEuNTE4bC0yLjQzOC00LjQ2MmEyMi41NSAyMi41NSAwIDAgMSA0LjYtMi4xNjIgMTYuMTg4IDE2LjE4OCAwIDAgMSA1LjE1Mi0uODI4YzIuOTE0IDAgNS4xNTIuODQzIDYuNzE2IDIuNTMgMS41NjQgMS42ODcgMi4zNDYgNC4yNzggMi4zNDYgNy43NzRWNDVoLTUuNTJsLS40Ni0yLjM0NmgtLjE4NGExMy43NjQgMTMuNzY0IDAgMCAxLTMuMDgyIDIuMTE2Yy0xLjA3My41MjEtMi4yNTQuNzgyLTMuNTQyLjc4MlptMi4zLTUuMjQ0Yy43NjcgMCAxLjQyNi0uMTY5IDEuOTc4LS41MDZhMTAuMTY5IDEwLjE2OSAwIDAgMCAxLjc0OC0xLjQyNnYtNC4wMDJjLTIuMzkyLjMwNy00LjA0OC43OTctNC45NjggMS40NzItLjkyLjY0NC0xLjM4IDEuNDEtMS4zOCAyLjMgMCAuNzM2LjIzIDEuMjg4LjY5IDEuNjU2LjQ5MS4zMzcgMS4xMzUuNTA2IDEuOTMyLjUwNlpNMTQ2LjkwMiA0NVYyMi4xODRoNS41MmwuNDYgMi44OThoLjE4NGExNy41NDggMTcuNTQ4IDAgMCAxIDMuMjItMi4zOTJjMS4xOTYtLjcwNSAyLjU2MS0xLjA1OCA0LjA5NC0xLjA1OCAyLjQ4NCAwIDQuMjc4LjgyOCA1LjM4MiAyLjQ4NCAxLjEzNSAxLjYyNSAxLjcwMiAzLjg2NCAxLjcwMiA2LjcxNlY0NWgtNi43NjJWMzEuNzA2YzAtMS42NTYtLjIzLTIuNzktLjY5LTMuNDA0LS40MjktLjYxMy0xLjEzNS0uOTItMi4xMTYtLjkyLS44NTkgMC0xLjU5NS4yLTIuMjA4LjU5OC0uNjEzLjM2OC0xLjI4OC45MDUtMi4wMjQgMS42MVY0NWgtNi43NjJabTMzLjA0LjU1MmMtMS41MDIgMC0zLjA1MS0uMjkxLTQuNjQ2LS44NzQtMS41NjQtLjU4My0yLjkyOC0xLjM1LTQuMDk0LTIuM2wzLjAzNi00LjIzMmMxLjA0My43NjcgMi4wNCAxLjM2NSAyLjk5IDEuNzk0Ljk4Mi4zOTkgMS45NDguNTk4IDIuODk4LjU5OCAxLjAxMiAwIDEuNzQ4LS4xNjkgMi4yMDgtLjUwNi40Ni0uMzY4LjY5LS44NDMuNjktMS40MjYgMC0uNTIxLS4yMy0uOTUtLjY5LTEuMjg4LS40MjktLjMzNy0uOTk2LS42NDQtMS43MDItLjkyYTU2LjE4MiA1Ni4xODIgMCAwIDAtMi4yNTQtLjkyIDE5LjMxIDE5LjMxIDAgMCAxLTIuNzYtMS4zOCA3LjgxMyA3LjgxMyAwIDAgMS0yLjI1NC0yLjExNmMtLjYxMy0uODktLjkyLTEuOTYzLS45Mi0zLjIyIDAtMi4xMTYuNzk4LTMuODMzIDIuMzkyLTUuMTUyIDEuNjI2LTEuMzE5IDMuNzQyLTEuOTc4IDYuMzQ4LTEuOTc4IDEuNzQ4IDAgMy4yODIuMzA3IDQuNi45MiAxLjM1LjU4MyAyLjUgMS4yNDIgMy40NSAxLjk3OGwtMy4wMzYgNC4wNDhjLS43OTctLjYxMy0xLjU5NC0xLjA4OS0yLjM5Mi0xLjQyNmE2LjA5NCA2LjA5NCAwIDAgMC0yLjM5Mi0uNTA2Yy0xLjc0OCAwLTIuNjIyLjU5OC0yLjYyMiAxLjc5NCAwIC43MzYuNDMgMS4zMDMgMS4yODggMS43MDIuODkuMzY4IDEuOTE3Ljc2NyAzLjA4MiAxLjE5NmExNS4wMSAxNS4wMSAwIDAgMSAyLjg1MiAxLjMzNCA2Ljc1MiA2Ljc1MiAwIDAgMSAyLjM0NiAyLjExNmMuNjQ0Ljg1OS45NjYgMS45OTMuOTY2IDMuNDA0IDAgMi4wNTUtLjc5NyAzLjgwMy0yLjM5MiA1LjI0NC0xLjU5NCAxLjQxLTMuOTI1IDIuMTE2LTYuOTkyIDIuMTE2Wk0xOTQuNzcxIDQ1VjI3LjQ3NGgtMy4wMzZWMjIuNDZsMy4wMzYtLjIzdi0xLjI0MmMwLTEuNjI1LjI3Ni0zLjA5Ny44MjgtNC40MTYuNTUyLTEuMzE5IDEuNDQxLTIuMzc3IDIuNjY4LTMuMTc0IDEuMjI3LS43OTcgMi44NjctMS4xOTYgNC45MjItMS4xOTYuOTUxIDAgMS44MjUuMDkyIDIuNjIyLjI3Ni43OTcuMTg0IDEuNDQxLjM2OCAxLjkzMi41NTJsLTEuMjQyIDQuOTY4YTUuNzcyIDUuNzcyIDAgMCAwLTEuMTk2LS4zMjIgNS4xMTUgNS4xMTUgMCAwIDAtMS4xNS0uMTM4Yy0uODI4IDAtMS40NzIuMjYtMS45MzIuNzgyLS40Ni40OS0uNjkgMS4zMTktLjY5IDIuNDg0djEuMzhoNC4wOTR2NS4yOWgtNC4wOTRWNDVoLTYuNzYyWm0yMy44NzYuNTUyYy0xLjkzMiAwLTMuNzU2LS40Ni01LjQ3NC0xLjM4LTEuNjg2LS45NS0zLjA1MS0yLjMxNS00LjA5NC00LjA5NC0xLjA0Mi0xLjgxLTEuNTY0LTMuOTcxLTEuNTY0LTYuNDg2IDAtMi41NDUuNTIyLTQuNzA3IDEuNTY0LTYuNDg2IDEuMDQzLTEuNzc5IDIuNDA4LTMuMTI4IDQuMDk0LTQuMDQ4YTExLjEzNCAxMS4xMzQgMCAwIDEgNS40NzQtMS40MjZjMS45MzIgMCAzLjc0Mi40NzUgNS40MjggMS40MjYgMS42ODcuOTIgMy4wNTIgMi4yNyA0LjA5NCA0LjA0OCAxLjA0MyAxLjc3OSAxLjU2NCAzLjk0IDEuNTY0IDYuNDg2IDAgMi41MTUtLjUyMSA0LjY3Ny0xLjU2NCA2LjQ4Ni0xLjA0MiAxLjc3OS0yLjQwNyAzLjE0My00LjA5NCA0LjA5NGExMS4xNTkgMTEuMTU5IDAgMCAxLTUuNDI4IDEuMzhabTAtNS40NzRjMS4zOCAwIDIuNDIzLS41ODMgMy4xMjgtMS43NDguNzA2LTEuMTk2IDEuMDU4LTIuNzc1IDEuMDU4LTQuNzM4IDAtMS45OTMtLjM1Mi0zLjU3My0xLjA1OC00LjczOC0uNzA1LTEuMTY1LTEuNzQ4LTEuNzQ4LTMuMTI4LTEuNzQ4LTEuNDEgMC0yLjQ2OC41ODMtMy4xNzQgMS43NDgtLjY3NCAxLjE2NS0xLjAxMiAyLjc0NS0xLjAxMiA0LjczOCAwIDEuOTYzLjMzOCAzLjU0MiAxLjAxMiA0LjczOC43MDYgMS4xNjUgMS43NjQgMS43NDggMy4xNzQgMS43NDhaTTIzNC4zNjUgNDVWMjIuMTg0aDUuNTJsLjQ2IDQuMDAyaC4xODRjLjgyOC0xLjUzMyAxLjgyNS0yLjY2OCAyLjk5LTMuNDA0IDEuMTY1LS43NjcgMi4zMzEtMS4xNSAzLjQ5Ni0xLjE1LjY0NCAwIDEuMTgxLjA0NiAxLjYxLjEzOGEzLjYxIDMuNjEgMCAwIDEgMS4xMDQuMzIybC0xLjEwNCA1Ljg0MmE4LjQwNSA4LjQwNSAwIDAgMC0xLjE5Ni0uMjc2IDcuOTI2IDcuOTI2IDAgMCAwLTEuMjg4LS4wOTJjLS44NTkgMC0xLjc2My4zMjItMi43MTQuOTY2LS45Mi42MTMtMS42ODcgMS42ODctMi4zIDMuMjJWNDVoLTYuNzYyWm0xOC4zMjggMFYyMi4xODRoNS41MmwuNDYgMi45NDRoLjE4NGExNy4zODIgMTcuMzgyIDAgMCAxIDMuMDM2LTIuNDM4YzEuMDczLS43MDUgMi4zNjEtMS4wNTggMy44NjQtMS4wNTggMS42MjUgMCAyLjkyOS4zMzcgMy45MSAxLjAxMiAxLjAxMi42NDQgMS44MDkgMS41OCAyLjM5MiAyLjgwNmExOC41NzggMTguNTc4IDAgMCAxIDMuMjItMi42NjhjMS4xMzUtLjc2NyAyLjQ1My0xLjE1IDMuOTU2LTEuMTUgMi40NTMgMCA0LjI0Ny44MjggNS4zODIgMi40ODQgMS4xNjUgMS42MjUgMS43NDggMy44NjQgMS43NDggNi43MTZWNDVoLTYuNzYyVjMxLjcwNmMwLTEuNjU2LS4yMy0yLjc5LS42OS0zLjQwNC0uNDI5LS42MTMtMS4xMzUtLjkyLTIuMTE2LS45Mi0xLjEzNSAwLTIuNDM4LjczNi0zLjkxIDIuMjA4VjQ1aC02Ljc2MlYzMS43MDZjMC0xLjY1Ni0uMjMtMi43OS0uNjktMy40MDQtLjQyOS0uNjEzLTEuMTM1LS45Mi0yLjExNi0uOTItMS4xMzUgMC0yLjQyMy43MzYtMy44NjQgMi4yMDhWNDVoLTYuNzYyWm00OS42NTQuNTUyYy0yLjE3OCAwLTQuMTQtLjQ3NS01Ljg4OC0xLjQyNi0xLjc0OC0uOTUtMy4xMjgtMi4zMTUtNC4xNC00LjA5NC0xLjAxMi0xLjc3OS0xLjUxOC0zLjkyNS0xLjUxOC02LjQ0IDAtMi40ODQuNTA2LTQuNjE1IDEuNTE4LTYuMzk0IDEuMDQyLTEuNzc5IDIuMzkyLTMuMTQzIDQuMDQ4LTQuMDk0IDEuNjU2LS45ODEgMy4zODgtMS40NzIgNS4xOTgtMS40NzIgMi4xNzcgMCAzLjk3MS40OSA1LjM4MiAxLjQ3MiAxLjQ0MS45NSAyLjUxNCAyLjI1NCAzLjIyIDMuOTEuNzM2IDEuNjI1IDEuMTA0IDMuNDggMS4xMDQgNS41NjYgMCAuNTgzLS4wMzEgMS4xNjUtLjA5MiAxLjc0OGExMi45NyAxMi45NyAwIDAgMS0uMTg0IDEuMjQyaC0xMy42NjJjLjMwNiAxLjY1Ni45OTYgMi44ODMgMi4wNyAzLjY4IDEuMDczLjc2NyAyLjM2MSAxLjE1IDMuODY0IDEuMTUgMS42MjUgMCAzLjI2Ni0uNTA2IDQuOTIyLTEuNTE4bDIuMjU0IDQuMDk0YTE0LjkxNSAxNC45MTUgMCAwIDEtMy45MSAxLjg4NmMtMS40NDIuNDYtMi44MzcuNjktNC4xODYuNjlabS01LjA2LTE0LjQ0NGg4LjIzNGMwLTEuMjU3LS4zMDctMi4yODUtLjkyLTMuMDgyLS41ODMtLjgyOC0xLjU0OS0xLjI0Mi0yLjg5OC0xLjI0Mi0xLjA0MyAwLTEuOTc4LjM2OC0yLjgwNiAxLjEwNC0uODI4LjcwNS0xLjM2NSAxLjc3OS0xLjYxIDMuMjJaTTMxNS45NDMgNDVWMjIuMTg0aDUuNTJsLjQ2IDQuMDAyaC4xODRjLjgyOC0xLjUzMyAxLjgyNS0yLjY2OCAyLjk5LTMuNDA0IDEuMTY1LS43NjcgMi4zMzEtMS4xNSAzLjQ5Ni0xLjE1LjY0NCAwIDEuMTgxLjA0NiAxLjYxLjEzOGEzLjYxIDMuNjEgMCAwIDEgMS4xMDQuMzIybC0xLjEwNCA1Ljg0MmE4LjQwNSA4LjQwNSAwIDAgMC0xLjE5Ni0uMjc2IDcuOTI2IDcuOTI2IDAgMCAwLTEuMjg4LS4wOTJjLS44NTkgMC0xLjc2My4zMjItMi43MTQuOTY2LS45Mi42MTMtMS42ODcgMS42ODctMi4zIDMuMjJWNDVoLTYuNzYyWm0yNC42ODUuNTUyYy0xLjUwMyAwLTMuMDUxLS4yOTEtNC42NDYtLjg3NC0xLjU2NC0uNTgzLTIuOTI5LTEuMzUtNC4wOTQtMi4zbDMuMDM2LTQuMjMyYzEuMDQzLjc2NyAyLjAzOSAxLjM2NSAyLjk5IDEuNzk0Ljk4MS4zOTkgMS45NDcuNTk4IDIuODk4LjU5OCAxLjAxMiAwIDEuNzQ4LS4xNjkgMi4yMDgtLjUwNi40Ni0uMzY4LjY5LS44NDMuNjktMS40MjYgMC0uNTIxLS4yMy0uOTUtLjY5LTEuMjg4LS40MjktLjMzNy0uOTk3LS42NDQtMS43MDItLjkyYTU2Ljc5MyA1Ni43OTMgMCAwIDAtMi4yNTQtLjkyIDE5LjMxIDE5LjMxIDAgMCAxLTIuNzYtMS4zOCA3LjggNy44IDAgMCAxLTIuMjU0LTIuMTE2Yy0uNjEzLS44OS0uOTItMS45NjMtLjkyLTMuMjIgMC0yLjExNi43OTctMy44MzMgMi4zOTItNS4xNTIgMS42MjUtMS4zMTkgMy43NDEtMS45NzggNi4zNDgtMS45NzggMS43NDggMCAzLjI4MS4zMDcgNC42LjkyIDEuMzQ5LjU4MyAyLjQ5OSAxLjI0MiAzLjQ1IDEuOTc4bC0zLjAzNiA0LjA0OGMtLjc5Ny0uNjEzLTEuNTk1LTEuMDg5LTIuMzkyLTEuNDI2YTYuMDk3IDYuMDk3IDAgMCAwLTIuMzkyLS41MDZjLTEuNzQ4IDAtMi42MjIuNTk4LTIuNjIyIDEuNzk0IDAgLjczNi40MjkgMS4zMDMgMS4yODggMS43MDIuODg5LjM2OCAxLjkxNy43NjcgMy4wODIgMS4xOTZhMTUuMDIgMTUuMDIgMCAwIDEgMi44NTIgMS4zMzQgNi43NTIgNi43NTIgMCAwIDEgMi4zNDYgMi4xMTZjLjY0NC44NTkuOTY2IDEuOTkzLjk2NiAzLjQwNCAwIDIuMDU1LS43OTcgMy44MDMtMi4zOTIgNS4yNDQtMS41OTUgMS40MS0zLjkyNSAyLjExNi02Ljk5MiAyLjExNloiIGZpbGw9IiMxMjEyMTIiLz4mI3hhOzwvc3ZnPg==;imageBackground=none;imageBorder=none;" parent="1" vertex="1">
          <mxGeometry x="241" y="251" width="125.29" height="21" as="geometry" />
        </mxCell>
        <mxCell id="yNoe0W8MWd9mktTDlJa6-4" value="&lt;h1 style=&quot;box-sizing: border-box; color: rgb(28, 30, 33); font-family: system-ui, -apple-system, &amp;quot;Segoe UI&amp;quot;, Roboto, Ubuntu, Cantarell, &amp;quot;Noto Sans&amp;quot;, sans-serif, BlinkMacSystemFont, &amp;quot;Segoe UI&amp;quot;, Helvetica, Arial, sans-serif, &amp;quot;Apple Color Emoji&amp;quot;, &amp;quot;Segoe UI Emoji&amp;quot;, &amp;quot;Segoe UI Symbol&amp;quot;; line-height: var(--ifm-heading-line-height); margin-bottom: calc(var(--ifm-h1-vertical-rhythm-bottom)*var(--ifm-leading)); --ifm-h1-font-size: 3rem; text-align: start; font-size: 14px;&quot;&gt;&lt;font style=&quot;font-size: 14px;&quot;&gt;&lt;span style=&quot;font-weight: var(--ifm-heading-font-weight);&quot;&gt;������️������ &lt;/span&gt;LangChain&lt;/font&gt;&lt;/h1&gt;&lt;div style=&quot;font-size: 14px;&quot;&gt;&lt;br&gt;&lt;/div&gt;" style="text;html=1;strokeColor=none;fillColor=none;align=center;verticalAlign=middle;whiteSpace=wrap;rounded=0;" parent="1" vertex="1">
          <mxGeometry x="243" y="274" width="120" height="20" as="geometry" />
        </mxCell>
        <mxCell id="yNoe0W8MWd9mktTDlJa6-5" value="" style="shape=image;verticalLabelPosition=bottom;labelBackgroundColor=default;verticalAlign=top;aspect=fixed;imageAspect=0;image=data:image/webp,iVBORw0KGgoAAAANSUhEUgAAC7gAAANcCAMAAAD48RK4AAADAFBMVEVHcEz//v3//vv9+/nf39///vr+/fng4eH//vz//frg4OD9/f3+/v3h4eH5+fnb3eDf39/39vbe4OL39/fg4eLf4eL+/v/36s7d3d3g4ODf4OD8/f38/P3Z2dlxcXHW1tbf4eT+/Pj+/v/39/b7+vm3t7ff39+8vLy6urrg4eHf4eK3t7e4uLj19fXe4OO6urq6urr7/f/f399xcXH/yWRxcXHg4eHp6uxxcXFwcHBxcXFxcXHPz89CQkLm5+jQ0NBDQ0O8vLzf39/6+/zY2NhCQkLAwMBxcXFxcXFxcXFxcXG+vr6tra1sbGze4OKLi4u3t7e3t7d2dnbg4+ZDQ0OhoaFDQ0NDQ0NDQ0NDQ0NDQ0Pj6fHV1dVxcXFxcXFxcXGzs7PAwMBDQ0PT09O/v7+3t7fT09N9fX1DQ0NCQkLg4ODf399DQ0NDQ0N0u/++vr6Xl5dxcXFwcHDT09NxcXHIyMhxcXG3t7dxcXH+thXAwMDf399DQ0NxcXHU1NRDQ0PAwMCamppCQkK/v7/f39+/v7//yWRDQ0PU1NSDg4OOjo7b3eC0tLS4uLi3t7dxcXFDQ0O3t7e3t7e/v7/b29u3t7e3t7ff39/+xlu/v79ycnLT09NxcXGlpaX+xVf+x1zf39+Tk5PCv7vD4P+/v7+CgoK/v7+z2f+4uLjR09X+tyGdzf9xcXFDQ0OXy/+Fwv/AwMC3t7e/v7+Nxv96enq/v7/DvbLY2Nir1f9CQkK73f5xcXFxcXH+ujGm0v9ERETZ2dn9uSra2tr9uSra2trZ2dn9uSx8vv/a2tr8xlfV1dX9uCipqanZ2dnW1tbb29va2tpktP7S0tJCQkLU1NSmpqaOwODtxFHY7P8uo/9DQ0Mwov/9tRbZ2dl/f3+ZmZnoypHi4uJlsPb+ujFhYWFMTEw6pP9VVVVFRUVJSUlbW1tQUFBYrvtEp/6uyOWRvuzQ1dvX2Nmfw+i7zuJmZmYzo/9jtP9Nq/7G0t5xtPSFuu58tvEwov7+4qrf4ODx0psC2l/QAAAA2nRSTlMAAQIFowgEOAMKmg0Rnh9noRZrI0JOLQx0Rz0TGvo7TmEHKB0Yd45sVT9YpIMPXE1HM5b8g49UMGtE1E9ZZixfRkGLJfVwdeq4dGKJof1v3l/S9lHZtk6bXcOlSEityFaWYT+hp2eU7c6vdpPluf6Vzd9bqKVte+ee93yShZhCeFnAVNGD6Hn3cuXWX4rdv/Xv8bC0g8e4h2G+SYLAq01ve8o5eNzs9Jj+OuTGhn/V8pz6/uP2xzzJqZOIg3/yt1fU0LW37P2d8eMswIO13bCYo9fufN7KBAj6jlKnf5oAAG3oSURBVHhe7N1/jJ3Xnd/3e4flkLNkqFCjHxYphxqRXlUu6URRY6YpQaKWoKY1uWwp8C8pLQ2jJrABFLYpi8ZBhRIIApOrVkDg1otsuWtBIAStCqmABMhwu4LitbLuxr920SjAMuQ2Wg5nOPwhWiT1k0ELHvIZcT4cztxznu/zPefceb+CIBtq5jxn7hfLefPMM8/t9QAAAAAAAAAAAAAAAAAAAAAAAAAAAAAAAAAAAAAAAAAAAAAAAAAAAAAAAAAAAAAAAAAAAAAAAAAAAAAAAAAAAAAAAAAAAAAAAAAAAAAAAAAAAAAAAAAAAAAAAAAAAAAAAAAAAAAAAAAAAAAAAAAAAAAAAAAAAAAAAAAAAAAAAAAAAAAAAAAAAAAAAAAAAAAAAAAAAAAAAAAAAAAAAAAAAAAAAAAAAAAAAAAAAAAAAAAAAAAAAAAAAAAAAAAAAAAAAAAAAAAAAAAAAAAAAAAAAAAAAAAAAAAAAAAAAAAAAAAAAAAAAAAAAAAAAAAAAAAAAAAAAAAAAAAAAAAAAAAAAAAAAAAAAAAAAAAAAAAAAAAAAAAAAAAAAAAAAAAAAAAAAAAAAAAAAAAAAAAAAAAAAAAAAAAAAAAAAAAAAAAAAAAAAAAAAAAAAAAAAAAAAAAAAAAAAAAAAAAAAAAAAAAAAAAAAAAAAAAAAAAAAAAAAAAAAAAAAAAAAAAAAAAAAAAAAAAAAAAAAAAAAAAAAAAAAAAAAAAAAAAAAAAAAAAAAAAAAAAAAAAAAAAAAAAAAAAAAAAAAAAAAAAAAAAAAAAAAAAAAAAAAAAAAAAAAAAAAAAAAAAAAAAAAAAAAAAAAAAAAAAAAAAAAAAAAAAAAAAAAAAAAAAAAAAAAAAAAAAAAAAAAAAAAAAAAAAAAAAAAAAAAAAAAAAAAAAAAAAAAAAAAAAAAAAAAAAAAAAAAAAAAAAAAAAAAAAAAAAAAAAAAAAAAAAAAAAAAAAAAAAAAAAAAAAAAAAAAAAAAAAAAAAAAAAAAAAAAAAAAAAsef9q7fZnN+y44zu/8zvf/da3vvnNb37z7zeu/X+++a1vfutb3/rWd7/1O9d8Jzh4x8Hf2rFjx45t2zZs27Bhw9NPP/30s88+++zLL7/88ipdHV1idhX7V/du3P7y0xt27PjOd74QBnh9hJ/P8PoQZ+d4bZLfvT7KG8P8zh3XxhnmuWPbthsjDTO9PtUw1pdffnmZXhoLevvixYsX//TxP73m/wnefvvtN9/84zf/+Jqf//HPf/7zv//zz/+37MZswmjmzub6/65dH06YzfXhhNncGM4WvTgAAAtZ8Wdppm/837n+ii6PDjG7iqUObz63DnOOg3ptLGTNWX0BU00vOpo/+4/06gAALKB/n34naYX4c8TsKmY8vAW9MapXx+29u1Nfvy4R7gCAKHfrd5JWiD9PzK5itsNb2Da9OG5v/Yy+fF0i3AEAUZ7U7yStEH+emF3FbIe3sP0r9eq4nXe/rq9epwh3AECUr+p3klaIP0/MrmK2w1vEBr06bmfVZX3xOkW4AwCifFm/k7RC/HlidhWzHd4iDo/o5TG/kSf0tesW4Q4AiGLbD8SfJ2ZXMdvhLWL6Lr085jfxqL523SLcAQBRbPuB+PPE7CpmO7zF7O7r9TGvHfrKdYxwBwBE+Yp+J2mF+PPE7CpmO7zFnFmh18d8RvbrK9cxwh0AEOW39DtJK8SfJ2ZXMdvhLeoAR+6DcHy6/nWEOwAgygP6naQV4s8Ts6uY7fAWNbldN4Bb9Xfr69Y1wh0AEMW2H4g/T8yuYrbDW9T0Ad0AbrX1jL5uXSPcAQBR7tDvJK0Qf56YXcVsh7e4s+O6A9zigL5qnSPcAQBRbPuB+PPE7CpmO7zFTe/VHUCNT+qr1jnCHQAQxbYfiD9PzK5itsMbwNRG3QLET/U16x7hDgCIYtsPxJ8nZlcx2+ENYqduAXOtndKXrHuEOwAgyp36naQV4s8Ts6uY7fAGMbNW94A59ukr5oBwBwBEse0H4s8Ts6uY7fAGsk/3gJutOqUvmAPCHQAQxbYfiD9PzK5itsMbyKnVugnc5Nv6enkg3AEAUWz7gfjzxOwqZju8wXxdN4HPTezSl8sD4Q4AiPIb+p2kFeLPE7OrmO3wBnN5THeBWTv01XJBuAMAotj2A/HnidlVzHZ4A/q27gKNlW/oi+WCcAcARPmCfidphfjzxOwqZju8Ae2a0G3ghvv0tfLx13QfAAAsxLYfiD9PzK5itsMb1EHdBq57d7e+VD4IdwBAFNt+IP48MbuK2Q5vUHuW6T4QrJjWl8oH4Q4AiGLbD8SfJ2ZXMdvhDWyb7gPX9A/oC+WEcAcARPlN/U7SCvHnidlVzHZ4A3tjpW4EvV5vfFJfKCeEOwAgim0/EH+emF3FbIc3uA26EfR6vb36Mnkh3AEAUWz7gfjzxOwqZju8wR0b0Z2gt2lKXyYvhDsAIIptPxB/nphdxWyHN7jpu3Qn6O/TV8kN4Q4AiGLbD3+lr+ujO8yuYrbDi7CbOastM5meKUO4AwAifV+/k7TCqa0nZlcx2+FFmF6hW1nq+t/W18gP4Q4AiGLbD5zaemJ2FbMdXowjDHqu5ZezHbgT7gCAOLb9wKmtJ2ZXMdvhxTizXfeytPV36CvkiHAHAESx7Yf/QJdHh5hdxWyHF+WA7mVpW7lHXyBHhDsAIIptPxB/nphdxWyHF2VyXDezpG3Q18cT4Q4AiPJd/U7SCvHnidlVzHZ4cfbqZpaykcP68ngi3AEAUWz7gfjzxOwqZju8OGc36m6WsHX5fjOVcAcAxPpH+p2kFeLPE7OrmO3wIu3U3Sxd/SOEOwCgHrb9QPx5YnYVsx1epKm1up0la/sZfXFcEe4AgCi2/UD8eWJ2FbMdXqx9up0la6++NL4IdwBAFNt+IP48MbuK2Q4v0vTMat3PEnX/WX1tfBHuAIAotv1A/HlidhWzHV60zbx9arBTXxhnhDsAIIptPxB/nphdxWyHF+3yKt3QkrR6Rl8YZ4Q7ACCKbT8Qf56YXcVshxfv27qhJWmzvizeCHcAQBTbfiD+PDG7itkOL96u5bqjJWj5ZX1ZvBHuAIAo39PvJK0Qf56YXcVsh5fgoO5oCTqoL4o7wh0AEMW2H4g/T8yuYrbDS/DoMt3SkjP6vL4o7gh3AEAU234g/jwxu4rZDi/FDt3SkrMh65umBoQ7ACCKbT8Qf56YXcVsh5fijZW6pyVm5Ji+JP4IdwBAFNt+IP48MbuK2Q4vyQbd0xKzTl+QDP4az9MHAMT4mn4naYX488TsKmY7vCTHRnRTS0r/iL4gGXDiDgCIYtsPxJ8nZlcx2+GluUs3taRsP6OvRwacuAMAotj2A/HnidlVzHZ4aXYv6Wo8pC9HDpy4AwCi2PYD8eeJ2VXMdnhpplforpaQjZP6cuTAiTsAIIptPxB/nphdxWyHl2b6yBLOxp36amTxV3VbAAAsxLYfiD9PzK5iv66vfw5ntuq2loz1U/piZEG4AwCi2PYD8eeJ2VXMdnipDizZI/fn9KXIg3AHAESx7QfizxOzq5jt8FJNjuu+loixU/pS5EG4AwCi2PYD8eeJ2VXMdnjJ9uq+loiD+kJkQrgDAKLY9gPx54nZVcx2eMnObtSNLQnLHtUXIhPCHQAQxbYfiD9PzK5itsNLNn1UN7YkbNPXIRfCHQAQxbYf/qkujw4xu4rZDi/d1Cbd2RIwsl9fhlwIdwBAFNt+IP48MbuK2Q6vhZ26syXgYX0RsiHcAQBRbPuB+PPE7CpmO7wWZlbr1oZef7e+CNkQ7gCAKLb9QPx5YnYVsx1eG8/p1obe1ml9DbIh3AEAUf6hfidphfjzxOwqZju8Nk6t0r0Nu0P6EuRDuAMAotj2A/HnidlVzHZ4rXxb9zbk1kzqK5AP4Q4AiGLbD8SfJ2ZXMdvhtXJ5uW5uuB3VFyAjwh0AEMW2H4g/T8yuYn9XX/+MDurmhtr6Kf36MyLcAQBRbPuB+PPE7CpmO7x2Hp3Q3Q2z5/TLz4lwBwBEse0H4s8Ts6uY7fBa2qG7G2KrTulXnxPhDgCIYtsPxJ8nZlexv66vf05vjOr2htcT+sVnRbgDAKIQf/VidhUrKtz/bINub2hN7NKvPSvCHQAQxbYfiD9PzK5itsNra/9K3d+w2qZfel6EOwAgim0/EH+emF3FbIfX2l26vyG18g39yvMi3AEAUWz7gfjzxOwqZju81g4vkSP3u/QLz4xwBwBEse0H4s8Ts6uY7fDamp5eoRscTrv1K8+McAcARLHth/9Ql0eHmF3FbIfX3pElceS+dVq/7swIdwBAFNt+IP48MbuK2Q6vvTNbdYdDqH9Av+zcCHcAQBTbfiD+PDG7itkOz8CBvm5x+Iyf0a86N8IdABDFth+IP0/MrmK2wzMw+Zhucfjs1S86O8IdABDl1/Q7SSvEnydmVzGz4V22um37kG5x6Kw9q19zAts3cPqrS+DnHAAAQ2b9EBB/nphdxcyGd/Kk/kmisxt1j8Nmn37J8aYf/XP9o1Y4cQcARDHrh4D488TsKmY2vJM/sbpx++iIbnK4rJrRrzjBnxqHOyfuAIAYZv0QEH+emF3FrIY3ffKp/fpniaY26SaHSv8J/YIT7LrTONx1lwAALMSqH64j/jwxu4qZDe/kI/fpH6XaqZscKhOX9etN8I1H/tzqdwoCTtwBAFHM+iEg/jwxu4pZDW/65CPLntc/TDSzXnc5THbol5vg1KpHbE/c/13dJQAAC7Hqh+uIP0/MrmJmwzv5SH+b/lmq53SXQ2TlHv1qE3ypR7gDAHIy64eA+PPE7CpmNryTj9jcBHLNqVW6zeHxtH6xCWZWWYc797gDAKKY9UNA/HlidhUzG97JR3q9h6zuu/62bnNo9A/r15pgX8863DlxBwBEMeuHgPjzxOwqZja8a+Fu8qDDay6P6T6HxQr9UhNMbSHcAQB5mfVDQPx5YnYVMxvetXDvbdY/TXVQ9zkk+kcMfihxtEe4AwDyMuuHgPjzxOwqZja8EO5bpvSPEz06oRsdDuMG71I1ee0594Q7ACAns34IiD9PzK5iZsML4d7bqX+caodudDjs1a8zwaFrCxHuAICczPohIP48MbuKmQ3verivPat/nmjPqO50GGwyeHnOrLm2EuEOAMjJrB8C4s8Ts6uY2fCuh7vJkXJwt+50GFj8QOKFsBLhDgDIyawfAuLPE7OrmNnwboT7GoObuIP9K3Wr9TN56s72sBThDgDIyawfAuLPE7Or2F/S1z/VjXDvv6D/IdV9utX6fVu/xgS7ry9FuAMAcjLrh4D488TsKmY2vBvh3ttu8LzD4PCI7rV2Ju8s+/L1tQh3AEBOZv0QEH+emF3FzIbXhHt/t/6XRNPrdK+126FfYoL9N9Yi3AEAOZn1Q0D8eWJ2FTMbXhPuJu8NGuzuy14rt+x5/QoTPHtjMcIdAJCTWT8ExJ8nZlcxs+HNhvvIfv1Pic5slb1W7mn9AhPsaX5ll3AHAORk1g8B8eeJ2VXMbHiz4W4SqMGBoTpyHzmmX1+86f+xWY1wBwDkZNYPAfHnidlVzGx4n4f7qMUtIddMPjZ3r3WzuIVo1+zbUhHuAICczPohIP48MbuKmQ3v83DvbdP/lurQnK3WrX9Ev7oE35hdjnAHAORk1g/Bf6nLo0PMrmJmw7sp3E0ee3jN5Jo5e63auME7U50am12OcAcA5GTWDwHx54nZVcxseCfvmV2z/5D+x1R75+y1aof0a0vwpc+XI9wBADmZ9UNA/HlidhUzG97Jez7/VdKxU/pfE01tmrPZim2a1K8t3sy9n693D+EOAMjIrB8C4s8Ts6uY2fBuOnHv9Tbrf02186ZFq7ZTv7IE+z5frk+4AwByMuuHgPjzxOwqZja8m0/ce1um9D8nmll/82brtdrgBZnactOChDsAICezfgiIP0/MrmJmw5tz4m5ywBzcdMpcM4sfQRy9eUHCHQCQk1k/BMSfJ2ZXMbPhzQ33tWf1vyc6termZWtlcdP/5Jz7/Ql3AEBOZv0QEH+emF3F/rK+/qnmhntvr/73VJvnLFspi8fszH2oPeEOAMjJrB8C4s8Ts6uY2fAk3NcYPLY8uPz5s8urNbpLv6p4ZzbOWZJwBwDkZNYPAfHnidlVzGx4Eu79F/QDUh2cs26VNujXlOCFm373l3AHAGRm1g8B8eeJ2VXMbHgS7r3t0/oRiXZNzF24PiP79WuKN7197pqEOwAgJ7N+CIg/T8yuYmbD03Dv79aPSLVj7sL1WadfUYLdcw/cCXcAQFZm/RAQf56YXcXMhqfh3luhH5Fqz6isXBmTf8K8LItah7v8uwAAgAWZ9UNA/HlidhUzG94t4W5xg8h122TlyljcNLR/RBa1DndZHgCABZn1Q0D8eWJ2FTMb3i3h3ntaPyTVG3UfBx/SryfBs7qocbj/Z7o+AAALMeuHgPjzxOwqZja8W8N92fP6Manu06VrsnFSv5x4b6zUVY3DnRN3AEAUs34IiD9PzK5iZsO7Ndx72/RjUh2r+cj9qH41CTbooubhXvMrDADwZ9YPAfHnidlVzGx484T7xGX9oFTrdOl6bJnSLyberlt/Pdc63HV9AAAWYtYPAfHnidlVzGx484R77yGDX8sM9GGIFXlOv5YE39BFzcOde9wBAFHM+iEg/jwxu4qZDW+ecO+PndKPSjS9VdeuxdiMfi3xLi/XVQl3AEBeZv0Q/De6PDrE7Cr27+jrn2qecO/1NutHpTpS65G7xQ8dvqSL2oc7t8oAAKKY9UNA/HlidhUzG9684b7a4Abv4Mx2XboOy3bpVxJvZpWuah/unLgDAKKY9UNA/HlidhUzG9684d7bqR+W6pCuXAeLB+s8p4teQ7gDAHIy64eA+PPE7CpmNrz5w33TWf24RJNrdOkq7NGvI97Ual30GsIdAJCTWT8ExJ8nZlcxs+HNH+69vfpxqfbqyjV4Vr+KBEd10YBwBwDkZNYPAfHnidlVzGx4Jx/UpYM1Z/QDE53dpEtXYLd+FfHOrtVFgwcJdwBARmb9EBB/nphdxcyGd/LBeR/80j+gH5hqpy5dvu36NSS4zU8aCHcAQE5m/RAQf56YXcXMhnebE/fedoPnIQZT63Xp4r2gX0O8yY26aNAn3AEAOZn1Q0D8eWJ2FTMb3m1O3Ht9g9tFrtunS5duo8FtQi/M/6py4g4AyMqsHwLizxOzq5jZ8G534t5boR+ZamaLLl24o/oVxJu+3fPrCXcAQE5m/RAQf56YXcXMhnfbcB/Zrx+aarMuXbb1Bo/C3K2LNgh3AEBOZv0QEH+emF3FzIZ323DvPa0fmurUmC5dtOd0/wm26qINwh0AkJNZPwTEnydmVzGz4d0+3EcN3oXouid06ZLdO6Pbj3f4XV21QbgDAHIy64eA+PPE7CpmNrzbh3tvm35sql0TunTBntDdJ3hWF51FuAMAcjLrh4D488TsKmY2vAXCfeKyfnCqHbp0uSy+6D0rddVZhDsAICezfgiIP0/MrmJmw1sg3E0On4NHl+nSxbL4McMGXfRzhDsAICezfgj+U10eHWJ2FTMb3kLhPnZKPzrVNl26VCuf163H27XAP1MIdwBATmb9EBB/nphdxcyGt1C49zbrR6da4OaRsjyrO0/wDV30JoQ7ACAns34IiD9PzK5iZsNbMNxXT+mHp7pPly5T/7BuPN7l5brqTQh3AEBOZv0QEH+emF3FzIa3YLj3duqHp9o/oksXaavuO8GCD78k3AEAC+pvPKh/ZMmsHwLizxOzq5jZ8BYO900G7yJ63TpdukT9I7rteDMLvt0U4Q4AWMDI9j85/qL+oSWzfgiIP0/MrmJmw1s43Ht79eNT7e7r0gVac0a3He85XXQOwh0AcFv9FX9y/Pjxcf1jS2b9EBB/nphdxcyGt0i4r5nUT0g0vVWXLpDBP1OmVuuicxDuAIDbGHn5WrYf/3CBZ5O1Z9YPAfHnidlVzGx4i4R7/4B+Qqoj5R+5rzX4V8pOXXQuwh0AMK/rp+3Hjx9/pdPfCjPrh4D488TsKmY2vEXCvbd9Wj8j0ZntunRx9ume451dq4vORbgDAObx7j03sv348Qf0v5ky64eA+PPE7CpmNryTj+nSc/V362ekOqBLl+Zeg4df7tVFBeEOALhFf/ufnL5y5Xq3X+n0Fne7fgiIP0/MrmJmw1ss3Hsr9DNSTa7RpQvzJd1xvMmNuqh4jHAHAIjxV07fqPbjx6880+1bFpr1Q0D8eWJ2FTMb3qLhPrJfPyXVYqfRmU2c0g3He0EXVYQ7AGCujW810R68cv13Uyfu3qIfaMKsHwLizxOzq5jZ8BYN997T+impzt6vSxdlm+433plFX0zCHQBws00/OD2n26/85rU/XfXdEye6+R1Vs34IiD9PzK5iZsNbPNxH9+jnpDqqS5dk5fO63XiLPzmHcAcAfG79S+fnZPvx4+cfGelt+dqJEyd+vui3lCRm/RAQf56YXcXMhrd4uFscRV83tV6XLojFDxYWf1a9dbh389c6AMDDqpc+kmw/fuW1px780YlrNuhH2zDrh4D488TsKmY2vAHCfWKXflKqfbp0OfoGt/IfXjyjrcNd1wcA1GLsh+c0248fP37p37zzzjvXwn2RxwunMuuHgPjzxOwqZja8AcK9d1A/KdVMN79pY2Gr7jXBs7rorazDffF/KgAASrTsxfmy/fiVj8Nx+4kT73Rzi7tdPwTEnydmVzGz4Q0S7mMGz1u5brMuXYwjutV4ewb4S9Y63HV9AEANRh/4sHlu+1wf3ej2E7/UTzFi1g8B8eeJ2VXMbHiDhHtvs35WqlP36tKFGDd4g9hBbke0DndO3AGgPiNPPnN83mw/fvzTJtzv008yYtYPAfHnidlVzGx4A4X7aoP3FL3u27p0IQ7pRuM9P6qLzsM43P8rXR8AULqRp/5Ic/1zF351I9xX66cZMeuHgPjzxOwqZja8gcK9t1M/LdXl5bp0ETZN6kbjfUMXnQ/hDgBL28gjr9/msD24eKPbv9jVT1TN+iEg/jwxu4qZDW+wcN90Vj8v1UFduggG/zC5PKGLzodwB4ClrL/11YWy/fi55k6Zb+lnWjHrh4D488TsKmY2vMHCvbdXPy/VowP1rbMtBv8u+ZIuOi/CHQCWsPFX5r5Nqroye4v7Ov1UK2b9EBB/nphdxcyGN1i499cY3Ety3Q5dO7/+l3ST8U6N6arzItwBYMm6/63zt/ud1MaFJtxX6SdbMeuH4G/q8ugQs6uY2fAGC/de/4B+Yqo3BvkdTl/LDR53+ZwuOj/CHQCWqNU/uOVtUm9xtbnF/cdd3eJu1w8B8eeJ2VXMbHgDhntvu8HzEq+7W5fO7hu6xXhTA761FOEOAEvSqpfOLXLYfs17zYH7d/XzzZj1Q0D8eWJ2FTMb3qDh3t+tn5lq/wDvU+RqdJduMd5OXfQ2CHcAWILGXvxQG31e79/o9l9t1RXMmPVDQPx5YnYVMxveoOHeW6GfmayrN5VI9bRuMN7ZtbrobRDuALDkTNz54QCn7ddcak7cB/u9qRRm/RAQf56YXcXMhjdwuI8c009NdbisI/eR/brBeHt10dsh3AFgiRn98jPa57dzunn3pZ/pInbM+iEg/jwxu4qZDW/gcLc4mL5uurOHXCUx+FHC5EZd9HYIdwBYUkae+qMBT9uPHz/+SXPg/h1dxo5ZPwTEnydmVzGz4Q0e7qN79HNTHensl+UTWNy8/4IueluEOwAsIf2HX78yeLcf/6AJ93FdyI5ZPwTEnydmVzGz4Q0e7v1t+rmpznT3SzfxxnV38c5s10Vvi3AHgCWjf8+rC7/fkvq4CfdlupQds34IiD9PzK5iZsMbPNx7EwZPX7nuQEFH7od0c/GO6Jq3R7gDwFIxHpntx8833f6mLmXIrB8C4s8Ts6uY2fBORvw87gn95FSTg/9roWv3t39L2OmIHyAQ7gCwNGx863zETTLBZ024/5YuZsisHwLizxOzq5jZ8GLCfczgHUavO6RLZ3NUtxbvcMTPD8YJdwBYAtb/4KPYbD9+ZfYW94GfeJDArB8C4s8Ts6uY2fBiwr33nH52qrNrdOlMVp/VrcV7VhddAOEOAMNvy0vntMoHMXuL+0pd0JBZPwTEnydmVzGz4UWF++op/fRURyNOqbu0WTcWL+qdYAl3ABh297446PstzXWu6fYf6YqW/rJ+J2mF+PPE7CpmNryocO/t1E9PNbVJl85ibEY3Fm+DLroQwh0Ahtvgb5OqPm3C/W5d05JZPwTEnydmVzGz4cWF+yaDO0uu26lLZ/GQbive81EP7SLcAWCYXXub1MRuP36hCfe1uqols34IiD9PzK5iZsOLC/feXv38VDPrdekMll3WbcXboYsuiHAHgOEV9Tap6urFG93+TswdmNHM+iEg/jwxu4qZDS8y3MfbPz3xhud06Qw26KbiXZ7QRRdEuAPAsIp8m1T1XnPg/gtd2JRZPwTEnydmVzGz4UWGe++ALpDq1BZd2l1/j24q3hO66MIIdwAYTtFvk6reb8L9rk4f32DWDwHx54nZVcxseLHhvnVaV0i1WZd296xuKd6p5browgh3ABhKj73SLtuPH7/UhHu351pm/RAQf56YXcXMhhcb7v3dukKqy2O6trfDuqV4sf/6INwBYAjdH/82qep0c4v7450euNv1Q0D8eWJ2FTMbXmy499bpCski7zIxt739Dw9mYs9FCHcAGDqrf/CRZni8T5oD9+/p8rbM+iEg/jwxu4qZDS863EeO6RKpdsX9Xqe5F3RD8aIfakm4A8CQWfXSuban7dd88Ksb4b5CL2DLrB8C4s8Ts6uY2fCiw93iUSw3xD1J0drGM7qfaGejn7VrHe7d/kAVALCI5S9+qAmeZvYW947vIzXrh4D488TsKmY2vPhwHzV4Fst1e0Z1bU9HdTvx9uqai7IOd10fAOBo2R2pb5OqzjcH7j/Raxgz64fgb3J+5IjZVcxsePHh3tuhayTbpks7Wt/+TWAnN+qiizIO94d0fQCAm5VPPqP9neyz5sD9C3oVY2b9EHBq64nZVcxseCfX6NKLWrZLF0m1f6Wu7ec53Uy8Q7rm4tbYhjsn7gCQS6u3Sb3FB024b9frGDPrh4BTW0/MrmJmw0sI994Tukiy+3RpN2MzupdoZ+J/WGEe7vxvHQBk0X/kdcNsP3784ybcu35ug1k/BJzaemJ2FTMbXkq4j53SVVIdHtG1nfQf0q3EO5JQzcbhzq0yAJBD/8FXTbP9+EdNt7+tl7Jm1g/Bf6LLo0PMrmJmw0sJd4vbTK6bXqdLO5m4rFuJNr1VFx0A4Q4A9VvT+m1S1adNuD+g17Jm1g8B8eeJ2VXMbHhJ4b56SpdJtTvh1NrCNt1IvMMpWyfcAaB2m946r93d2oUm3OOfehDJrB8C4s8Ts6uY2fCSwr23U5dJdSbl2Lq9lc/rRuI9rIsOgnAHgLqtf8ngbVJvcbEJ986fk/yX9DtJK8SfJ2ZXMbPhpYX7pvbPUrzhhZRz69ae1W3E2590ez7hDgA1u/eH57S5LbzXPMX9R3pBc2b9EBB/nphdxcyGlxbuvb26TqrJrh98NZ/+Yd1GvA266EAIdwCo14TV26Sq95sD9yf1kubM+iEg/jwxu4qZDS8x3McndaFUCQ9Db22rbiJe4ru+Eu4AUKtlD1i9TeotZm9xX6sXNWfWDwHx54nZVcxseInh3j+gC6WaTNtAG/0juol4iW/6SrgDQJ1GDN8mVV1pbnF/J+kuzChm/RAQf56YXcXMhpcY7r2t07pSqr26dOc2ntE9RNuV+A4ZhDsA1GjkqT/S2jb0XnPg/ku9rj2zfgiIP0/MrmJmw0sN9/5uXSnV1CZdu2sGN+g/oWsOiHAHgAo98rq2tqUrs7e436UXtmfWDwHx54nZVcxseCdTHxm7TldKtlOX7tj69vfnn1quiw5oI+EOAJUxf5vUW1xqwn21XtueWT8ExJ8nZlcxs+Elh/vIMV0q1dR6Xbtb+3QD8TbrmoMi3AGgMhvN3yZVnW4eBvm4wxOSzfohIP48MbuKmQ0vOdx7G3SpZPt06U7d2/5tX2e26KKDItwBoCprf2D/Nqnqk+bA/Wt69Q6Y9UNA/HlidhUzG156uI/u0bVSpXdwii/p5eOl39xDuANARbZ08jap6oMb3f6rFXr9Dpj1Q0D8eWJ2FTMbXnq493boWqmmk+88STBxSi8frcW9PYQ7AFRjrJu3Sb3Fx82J+726gw6Y9UNA/HlidhUzG16LcJ/YpYulujyma3fnG3rxeEd1zcER7gBQiWVdvU2qOt90+090C10w64eA+PPE7CpmNrwW4d57QhdLlvp0xXjvPq/XjjbZ4iUj3AGgCqPdvU2q+qwJ9y/oJrpg1g8B8eeJ2VXMbHhtwn2s/V0nN6S+n1G8p/XS8Q7pmhEIdwCowMiTXb7fkrjQhPt23UYXzPohIP48MbuKmQ2vTbj3ntPVku3QpTvS369XjnZmXBeNQLgDQPFGHnbM9ptucXc5wzLrh4D488TsKmY2vFbhvrr9kxVv2DOqa3djhV443pE2j9kl3AGgcP2tr3vdJBOca7r9bd1JJ8z6ISD+PDG7ipkNr1W493bqcsm26dLdOKLXjTa9VdeMQbgDQNkee8U1248f/7QJ9wd0K50w64eA+PPE7CpmNrx24b7prK6X6o0RXbsL49N63WiH2xy4W4f7l3R9AEAb93f+Nqm3mL3FfY1uphNm/RAQf56YXcXMhtcu3Pt7db1k9+naXTikV423TteMYhzunLgDgCGPt0lVVy824f6ubqcTZv0QEH+emF3FzIbXLtx745O6YKpjDkfum9rvdn+7bRqHOyfuAGDG521S1XtNt/9I99MNs34IiD9PzK5iZsNrGe79A7pgsnZH2QMxuCV/g64ZxzjcOXEHACNeb5Oq3m/C/UndUTfM+iH473R5dIjZVcxseC3Dvbe1/V3jN+xudfP4ILa0vyO/7dNvjMOdE3cAMDFxp9PbpN7iUhPua3VP3fg1/U7SCvHnidlVzGx4bcO9v1tXTNXucS2D2KyXjNf24TfG4c6JOwAYGP1Krmw/fvpXN7r9nXZ3Yg7MrB8C4s8Ts6uY2fDahntvna6YrNUD0gcwNqNXjNb6HV6Nw50TdwBobeVTru+3NNcnTbf/UrfVEbN+CIg/T8yuYmbDax3uI8d0yVRnOn6z54f0gtGmW59wE+4AUJa+79ukqg+aE/e7dGMdMeuHgPjzxOwqZja81uHe26BLJjukS5sa3aXXi3ZqlS4ai3AHgJL0t77q/H5LYvYW9y26tY6Y9UNA/HlidhUzG97J+3XpWKN7dM1Uk52++YTBPzA265rRCHcAKMi499ukqvNNtz/e8d2is8z6ISD+PDG7ipkNr32493bomsn26tKGRvbr1aLNtD8Pud823FvfugMAS9jGt9zfJlV91oT793RzXTHrh4D488TsKmY2PINwn2h/D8oNZ9tv5rZW6MXi7dM14xmHOyfuAJBqfYa3Sb3FB024r9DtdcWsHwLizxOzq5jZ8AzCvfeELppspy5txuCxlVPrddF4hDsAFGEsy9uk3uLjJtzHdINdMeuHgPjzxOwqZjY8i3C/95Sumsqijee3XS8V76iumYBwB4ACjL2Y521S1bnmmTI/0R12xqwfAuLPE7OrmNnwLMK995yumszgbpT5vaBXijbZ+vk7hDsAlODdbG+Tqj5tDty/oHvsjFk/BMSfJ2ZXMbPhmYT7+ildNpXB73/Oa+MZvVI0k4dVEu4AkN1XtJ+zudCEe8dvZHITs34I/i9dHh1idhUzG55JuPd26rLJ2j9xcV5H9TrRzozrmikIdwDIrf+W9nMuVy824d72fbkHZ9YPAfHnidlVzGx4NuF+/1ldN9H0qU5+P2d9+/0dMXnELuEOALkte0YDOpf3mlvc3zT5FjMQs34IiD9PzK5iZsOzCffeXl032RO6tIX2N+FPb9U1kxDuAJDbePantzfebw7cH9A9dsesHwLizxOzq5jZ8IzCfXxSF061a7mu3d7YjF4l2m6b0xDCHQByu0P7OZtLzYm7xdMPBmTWDwHx54nZVcxseEbh3j+gCyc7qGu399C0XiTaOl0zDeEOALm9qv2cy5XZW9xX6h67Y9YPAfHnidlVzGx4Jzfp0mm2tm/jG55fpmu3NXFZrxFt/4gummYT4Q4AeU18eEULOpP3mm7/ke6xQ2b9EBB/nphdxcyGZxXuBu9M2tima7e1Ta8Qb4OumYhwB4DMHiyl26/M3uJ+t+6xQ2b9EBB/nphdxcyGZxXuvXW6crI9xj8yXPm8XiHanlFdNBHhDgCZvagBnc2lJtzX6h47ZNYPAfHnidlVzGx4ZuE+ckyXTmZ1vH3Ds7p+PLMfAhDuAJDXSDG3uJ9ufjX1izaPPxiMWT8ExJ8nZlcxs+GZhXtvgy6dzOqG8uv6h3X9aLvM3hmDcAeQ0f/9u7/727/927/3L37vX1zzz6/7w3/+hzf8sz/8Z43fv/Z/gj/4/T+4yV/8wV/8Rfi/nfu3unkrYx9qQOfySXPg/gvdY5f+un4naYX488TsKmY2PLtwH92jayd7WNduY6uuHs/uQTeEO4CMfvdfz/EP/sGN//df3/gfbvqfgr+Y9099dBbuj2g/Z/NBE+536R67ZNYPAfHnidlVzGx4duHe26FrJzts+FPD/gu6erTLdo+WJ9wB5PT7msfl6izcf3hVAzqXj5tw36J77JJZPwT/py6PDjG7ipkNzzDcJ3bp4qmmV+ja6dac0dWjbdY10xHuAHKSI/eSdRXu/de1nzO5cr7p9h8bHlYtzqwfAuLPE7OrmNnwDMO994QunuyI3d9ie3XtaDOGZyGEO4Cs6jly7yrctxRzi/tnTbh/V/fYKbN+CIg/T8yuYmbDswz3e0/p6qnObNe1U62d1LWj7dM1WyDcAWRVz5F7V+H+sPZzNheacN+qe+yUWT8ExJ8nZlcxs+FZhnv/OV092Qu6dqp9unK0qfW6ZguEO4C8MvyaaZp/a/yWHo2XtJ+zmb3FfUz32CmzfgiIP0/MrmJmw7MM9976GV0+1eS4rp1m1ZSuHO2ortkG4Q4gr2qO3P+/J02fDNzov6b9nMu5ptt/pnvsllk/BMSfJ2ZXMbPhmYZ7b6cun2yvLp3mS7putLMbdc02CHcAmdVy5P7/Xq/af6P7b2n9R1e0oDP5tAn339A9dsusHwLizxOzq5jZ8GzD/f6zun4qm16eaH/X/SFdsxXrcLf7JV4AS0QtR+4dhftT2s/ZzN7ibvQT5kGZ9UNA/HlidhUzG55tuPfbP8OlYXKHyjd01WhW9+zcYB3uuj4ALKJfyYNlOgr3H2g/53L1YhPuy3SP3fq7+p2klf9dl0eHzNovYHauzIZnG+698fYPcblhaq2uHW/0eV012gvv6qKtWIc7J+4AIvUrOXJvwt32r7n+MxrQubzXdPubuseOEe71YnYVMxveSYM+vkn/gF4gmcFTGJ/WNaNNGz+lyzrcdX0AWMzKOu5y7ybcN32kAZ3L+024f0X32DGzfgiIP0/MrmJmwzMO997Wab1CqpnVunaskf26ZrTdtt8yemuNw914ewCWgjqO3LsJ9ye1n7O51IS7yW90RTDrh4D488TsKmY2POtw7+/WKyR7TteOtUJXjLdC12zJOtx1fQBYVB1H7t2E+1ulPFPm9K+acO/oefW3ZdYPAfHnidlVzGx41uFuUcs3nGr5nhT9I7pitP3WjxE2DvfNuj4ALKqOu9w7CfeVxdzi/knT7T/XPXbNrB8C4s8Ts6uY2fDMw33kmF4i2RO6dpzxM7pgtGd1zbaMw50TdwAJRms4cu8k3Nec14DO5YPmxP1u3WPXzPohIP48MbuKmQ3PPNwNfiO0cXm5rh3lkK4XbY/5TzCtw930OxqAJWKkhiP3TsL9Ae3nbD5uTtzX6x67ZtYPAfHnidlVzGx49uE+ukevkWr6IV07xqb2T6bcoGu2Zhzu3CoDIMWyCo7cOwn3V7SfcznfHLh/0fTrG8Q/1O8krRB/nszaL2B2rsyGZx/uvW16jWSPtnlbip26WrRdbS4/P+Nw51YZAClqOHLvItwnPtSAzuWzG93+zi90j50j3OvF7CpmNrwOwn1il14k2TZde3Crp3SxaN/QNdsj3AGUoIIj9y7C/bHTGtC5fHAj3E88rHvsnFk/BMSfJ2ZXMbPhdRDuvYN6kWRvpN9kvlnXitbyFvt5GYc7t8oASLKy/CP3LsL9Tu3nbGZvcV+le+ycWT8ExJ8nZlcxs+F1Ee5jp/QqyZLvMjfYQxfH2cbh3sUWASwF5R+5dxHur2o/53KuucX9x5Zf3mDM+iEg/jwxu4qZDa+LcDc47W4kP0j9IV0p2kwX5yDG4c6JO4BEv62hXJoOwn15Mbe4f9ocuH9f99g9s34IiD9PzK5iZsM72cWTqLbM6GWSJd7+t6z9ffat37h1PusJdwBFGCn9yL2DcL+nlLdNPX6hCfetusfumfVD8Dd0eXSI2VXMbHidhLvBE10ah9P+zt6g60SbWq1rWjAOd57jDiBV6UfuHYT7i9rPuVy92IR7B79LtZhf1+8krRB/nphdxcyG1024rz2r10k1vULXHsTIfl0n2k5d04RxuHPiDiBV6UfuHYT76xrQubzXdPvPdIsOzPohIP48MbuKmQ2vm3Dv7dXrJDuS8pf2Ol0l2tlNuqYJwh1AKQo/crcP91XnNKBzef9Gt79zp+7RgVk/BMSfJ2ZXMbPhdRTua9q/bekNZ7br2ovr79ZVou3VNW0YhztPlQGQbGXZR+724f6I9nM2l5qHyozrHh2Y9UNA/HlidhUzG15H4d4/oBdK9kL839rbp3WRWJNrdE0bxuHOiTuAdGUfuduH+w+1n3M5PXuL+6ju0YFZPwTEnydmVzGz4XUU7gbt3JiMP5F4QdeIlvCvhYEQ7gCKUfaz3M3Dvf+aBnQunzTd/qbu0YNZPwTEnydmVzGz4XUV7gZ3qzQO6dqLaX+fTsr9OQMh3AGUo+gjd/NwX13cLe4nvqp79GDWDwHx54nZVcxseF2Fe2+FXinZ2Y269iKO6grRdpt9pxCEO4ByFH3kbh7ud2k/Z3OpCfdunoKwCLN+CIg/T8yuYmbD6yzcR47ppZId1bUXtr79syiTnkE5CMIdQEFKPnI3D/eXtJ9zOd/8auqJ1PcGb8WsHwLizxOzq5jZ8DoL997TeqlkU2t17QXt08+Pdrizv0wJdwAFKfnI3TrcC7zF/ZdWX1sUs34IiD9PzK5iZsPrLtxH9+i1kkW9GdKqGf30aM/qmmYIdwAlKfjI3Trc136kAZ3LB02436d7dGHWDwHx54nZVcxseN2Fe2+bXivZzGpdewFP6GdH27NS1zRDuAMoScFH7tbh/pT2czYfN+Ee863Njlk/BMSfJ2ZXMbPhdRjuE7v0Ysme07Vvb+KyfnK0DbqmHcIdQEn65R65G4d7/wfaz7l81HT740ZfWiSzfgiIP0/MrmJmw+sw3HsH9WLJTq3StW+r/Tn/ox2+IwbhDqAo5R65G4f7yDMa0Ll81oT7r+sefZj1Q0D8eWJ2FTMbXpfhPnZKr5bsCV37dla2v7P+G7qmIcIdQFFGij1yNw73+89rQOdyoQn3zp5ftrCv6XeSVog/T8yuYmbD6zLce5v1askuL9e1b6P9s2wGvlQKwh1AWYo9cm/C3egpX1/Wfs7mYvM0yHt1jz7M+iEg/jwxu4qZDa/TcN/S/gEvjYd07fmNHNZPjPYlXdMS4Q6gLMUeuRuH+1vaz7mcaw7cf6JbdGLWDwHx54nZVcxseJ2Ge2+nXi7ZrmW69rxWTOsnxoq4nT4B4Q6gMBNazIWwDffRYm5x/7QJ99/UPTox64eA+PPE7CpmNrxuw31t+zcxbWzTtefTP6KfFi3iATYJCHcAhSn1wTK24T5+WgM6kyuzt7hv1z06MeuHgPjzxOwqZja8bsO9v1evl2zPIM96GT+jnxZrqtvn6hLuAEpT6JG7bbg/oAGdy9WLTbhP6B6dmPVD8DeMfnkYg2B2FTMbXrfh3lszqRdMNsjT1dv/OyHqTVrjEe4ASlPoXe624f6qBnQu7zXd/rZu0YtZPwSc2npidhUzG17H4d4/oBdMtn/xv703tb4z5+xaXdMW4Q6gOGUeuZuG+8SHV7SgM3m/CfcHdI9ezPoh4NTWE7OrmNnwOg733vbWN6/MukvXvkX734Xdq0saI9wBFKfMI3fTcH+wlG4/fqkJ9zW6Ry9m/RBwauuJ2VXMbHgnu72nu9ffrVdMdnixv75Xt3765ORGXdMY4Q6gPMs1mktgGu4vXtWAzuR08xD3E4P83lYnzPoh4NTWE7OrmNnwug733gq9YrLpxd5lrv37Pb2gS1pbTbgDKM/vaTUXwDTci7nF/ZOm23+kW3TzPf1O0sr/oMujQ8yuYmbD6zzcR47pJZPtXvgfh2OX9RNinen86VyEO4ACLdNqLoBluI99qAGdywdNuD+pe3Rj1g8B8eeJ2VXMbHidh3vvab1kskW6+qB+fLQjuqQ543Dv9qHzAJaMAo/cLcP9Hu3nbD5uwr3jJyEs4Lv6naQV4s8Ts6uY2fC6D/eVe/SayV5Y6Mh92aP64bGmt+qa5mzDfXqfrg8AKQo8crcM9xe1n3M533T7OxZfVprf1G8lrRB/nphdxcyG132497bpNZOdGde1b7JhWj881qK//dqebbj/2b7udwxgSSjvyN0w3N99XQM6l8+acP813aMfs34IiD9PzK5iZsNzCPeJXXrRZId07c8Z3Ev/rK5pzzbcOXEHYKS8Z7kbhvuqc6U8DXL2FvfFn2/cGbN+CIg/T8yuYmbDcwh3g5vPGws8rvFh/dhobxh8e1iMbbhz4g7ASnFH7nbh/u4j2s/ZzN7ivkU36cesHwLizxOzq5jZ8DzCfeyUXjXZUV27YfC8+A26ZgeMw/3v6foAkKa4I3e7cO+9pP2cy7mm2x9f6De2OmbWDwHx54nZVcxseB7hbvCA9cbZ2/0i/tbW79D6qMe7YRDuAApV2pG7Ybi/pgGdy6dNuP8j3aIjs34IiD9PzK5iZsNzCfctrd/SdNZOXfu6/gH9wGjf0DW7QLgDKFRpR+524b76Iw3oXC404b6VE3ckYHYVMxueS7j3duplk03Nv981k22fKXN5ua7ZBcIdQKkKO3K3C/entJ9zuXqxCfcx3aOjL+h3klaIP0/MrmJmw/MJ97Vn9brJ5n/PoZ/qh0V7QpfsBOEOoFSFHbnbhXsxt7i/13T7z3SLnsz6ISD+PDG7ipkNzyfce3vbHojPmpnvd/HXTumHxTrlcuBuHe48VQaAnbKO3M3CfeUzGtC5vN+E+2/oHj2Z9UNA/HlidhUzG55TuK+Z1Aunmv6Srt3r9fbpR0Wb/yDfnHG4c+IOwE5ZR+5NuK/UbcbaVMwt7pd+dSPcF3ozwc6Z9UNA/HlidhUzG55TuBv88mjj8q33Bq5q/bzJmVW6ZjeMw33fu3oBAEhW1JG7Wbg/qf2cy5Wm208s0z16MuuHgPjzxOwqZjY8p3DvbW/9uMZZB3Xt3rf1Q6Ld5mE15ozD/d/T9QEg3XKN55zMwv0tDehcPmnC/U3doiuzfgj+e10eHWJ2FTMbnle4G7xBUmOXnlVM7Gp7B/1tHw9vzTjc9+n6ANBCSUfuVuE+Ut4t7l/RPboy64eA+PPE7CpmNjyvcO+t0yun2yZL79APiLZXVuyMbbhPE+4ALJV05G4V7htPa0DncqkJ9426R1dm/RAQf56YXcXMhucW7iPH9NLJ9sx9j9PRN9oeuE+6/S1qG+7cKgPAVL+gI3ercP+K9nMu52dvcW/7JbVj1g8B8eeJ2VXMbHgn53u6Yifu00un2zBn4Q36n6O9MGe9Lm2xDXdO3AGYKujI3SrcX9GAzuWzptt/rlv0ZdYPAfHnidlVzGx4fuE+ukevneyNm98seqT13fNn/J7MZRzunLgDMFXQkbtRuE98qAGdywdNuD+le/Rl1g8B8eeJ2VXMbHh+4d7bptdOd9dNyz7c9kaZPzty878DumUc7py4A7BVzpG7UbiPF3OL+8dNuK/XPfoy64eA+PPE7CpmNjzHcJ/YpRdPdvjzt9LrH2gb7tNb52yzU8bhzok7AFsjxRy5G4X7HdrPmVz9qOn2L/qdFc3LrB8C4s8Ts6uY2fAcw713UC+ebsXsoltbvyfrTf8K6JxtuPNUGQDWxjSgczEK91e1oHP5tAn3v6tbdGbWDwHx54nZVcxseJ7hPtb6DU5n7Z49sfiX+p+iPTx3l52yDXdO3AFYK+Yud5twL+cW9wtNuK/TPToz64eA+PPE7CpmNjzPcO9t1qsnm729Zc2U/qdY+9t9V4hDuAMoXClH7jbh/uAVDehMrl5snga5SvfozKwfAuLPE7OrmNnwXMN99YxePtmRG0v+E/0P0eY+W7JjxuG+L/OtkgCG0D/WhM7DJtxf1IDO5Vxz4P7j3H9v/4Z+J2mF+PPE7CpmNjzXcO/t1Msnu/EIx7Wt/ynw/Nx3c+qYcbhz4g7A3IQmdB424f66BnQus7e4f1+36M2sHwLizxOzq5jZ8HzDfdNZvX6yQ2HB/0P/ONoO3WOnjMP97+n6ANBaGUfuJuE+dk4DOpMrs7e4b9c9ejPrh4D488TsKmY2PN9w7/1Ur59scmOv11vf9gmT05cndIudMg53TtwB2CvjWe5NuLf6qegjGtC5XGnucD+xXPfozawfAuLPE7OrmNnwnMN9TeuHN87a2+v1vqV/GO0J3WG3CHcA5SviyN0k3H+oAZ3Le023v61bdGfWDwHx54nZVcxseM7h3j+gG0h2dlNv/Rv6h7FOjekOu0W4AyhfEUfuFuHef+2qFnQm7zfhfofu0Z1ZPwT/rS6PDjG7ipkNzznce9vP6A6S7ez9Qv8o2mbdX8eMw5173AF0oYQjd4twX1XKLe7HLzXhvkb36M6sHwLizxOzq5jZ8LzDfWS37iDZ1JMn9Y9izTh/9dbhzok7gC6UcORuEe4Paz/ncnr2Fvc2X44Ns34IiD9PzK5iZsPzDvfeimndQrI/b316v1N31zXCHUANCjhytwj3lzSgc/mk6fY/1i36M+uHgPjzxOwqZja8k97v4TZyTLeQz9m1uruurSLcAVSggLdPNQj3/msa0Ll80IT7V3WP/sz6ISD+PDG7ipkNzz3ce/fpFvK59mAaX4Q7gCrkP3I3CPf1H2lA5/JxE+6bdI/+zPohIP48MbuKmQ3PP9xH9+gecgmPgvdFuAOoQv4jd4Nwf0r7OZfzTbe/M6J79HenfidphfjzxOwqZjY8/3DvbdM95HL9zVddEe4A6pD9yN0g3H+gAZ3LZ024/1K3mIFZPwTEnydmVzGz4WUI94m2b3dq5MxjurPuEe4A6pD9yL19uI88U8pT3Gdvcb9L95iBWT8ExJ8nZlcxs+FlCPfeQd1EHkf6urHuEe4AKpH7yL19uG86rwGdy8Um3L2f4zYfs34IiD9PzK5iZsPLEe5jp3QXOUxv1X05INwBVCL3kXv7cH9S+zmXc81T3B/PcF50C7N+CIg/T8yuYmbDyxHuvc12z3JPdzjHX6CEO4BaZD5yb8J9me5rYG9pQOfyaXPg/j3dYg5m/RAQf56YXcXMhpcl3FfP6DYyWKe78kC4A6hF5iP31uG+8hkN6FwuNOG+QveYg1k/BMSfJ2ZXMbPhZQn33k7dhr/9WR7KRbgDqEbeI/fW4b7mtAZ0Jldnb3Ef0z3mYNYPAfHnidlVzGx4ecJ901ndh7sNuicXhDuAauQ9cm8d7g9oQOfyXtPtP8txh+YtzPohIP48MbuKmQ0vT7j3fqr78LYn/fed2iDcAdQj65F763B/RQM6l/ebcP+CbjELs34IiD9PzK5iZsPLFO5rJnUjzrbpjnwQ7gDqkfXIvW24T3yoAZ3LpeahMuO6xyzM+iH4O7o8OsTsKmY2vEzh3j+gG/G1a0J35INwB1CRnEfubcP9sSsa0Jmcbrr9RKZvPMKsHwLizxOzq5jZ8DKFe2/7Gd2Jq4d0P04IdwAVyXnk3jbc79SAzuWTptvf1C3mYdYPAfHnidlVzGx4JzP9knt/t+7E06lM/1zpjRmHexG/6QRgaGU8cm8Z7v1XNaBz+aAJ9wd0j3mY9UNA/HlidhUzG16ucO+t05142qy78WId7ro+AFi6V3PaT8twX17OLe5NuG/UPeZh1g8B8eeJ2VXMbHjZwn3kmG7Fz8wW3Y0X63DnxB1Al/r5jtxbhvs92s+5nJ+9xX2l7jEPs34IiD9PzK5iZsPLFu69+3QrfnbqXtxYh7uuDwCm8h25N+Ge+BudL2pA5/JZ0+0/1y1mYtYPAfHnidlVzGx4+cJ99A3di5ep9boXN9bhzok7gE7lO3JvGe6va0DnMnuL+926xUzM+iEg/jwxu4qZDS9fuPd26F68HNWd+LEOd10fAGxlO3JvF+6rzpXyNMiPm3DPd2Q0l1k/BMSfJ2ZXMbPhZQz3iV26GR+TGX9ByDrcR/QCAGAq25F7u3B/RPs5k6sfNd3+xVJ+QmrWDwHx54nZVcxseBnDvXdQN+PjkO7DkXW46/oAYCzXkXu7cP+hFnQunzbh/gvdYi5m/RAQf56YXcXMhpcz3MdO6W48nBnPeOxhHO7/RNcHAGO5jtxbhXv/NQ3oXC404f6w7jGXO/Q7SSvEnydmVzGz4eUM95HNuhsPRzJ2u3W4c+IOoHOZjtxbhfvqjzSgM7l6sQn3XO/7dwuzfgiIP0/MrmJmw8sZ7r3VM7qd7k1v1V14Mg53TtwBdO/f16Z20Src79KAzuW9ptt/nPPMaA6zfgiIP0/MrmJmw8sa7r2dup3uHc76l6dxuHPiDqB7y7WpXbQK95c0oHN5v3n7pe/rFrMx64eA+PPE7CpmNry84b7prO6nc+t0D66Mw50TdwAOshy5twn3kWc0oHOZvcU96w975zDrh4D488TsKmY2vLzh3t+r++na/rwPUDQOd07cATjIcuTeJtzXlnKL+5XmwP3Ect1jNmb9EPydrD/FXmqYXcXMhpc33HtrJnVDHdugO/BlHO6cuAPwkOPIvUW495/SgM5l9hb3t3WP+Zj1Q8CprSdmVzGz4WUO9/4B3VC39ozqDnwZhzsn7gA85HiwTItw7/1AAzqX95twv0O3mI9ZPwSc2npidhUzG17mcO9tP6M76tQ2vb4z43DnxB2AiwxH7i3CvZxb3C814T6ue8zHrB8CTm09MbuKmQ0vd7iP7NYddWlXwncAU4Q7gBplOHJvEe73n76iBZ3H6dlb3DP/tPdmZv0Q/G1dHh1idhUzG17ucO+t0x116aBe3ZtxuHOrDAAf/kfuLcL9yxrQuXzSdPsf6xYzMuuHgPjzxOwqZja87OE+cky31J1Tub9Y63DnxB2AD/8j9xbh/pYGdC4fNOH+Vd1iRmb9EBB/nphdxcyGlz3ce/fplrqzWa/tjnAHUCf3I/f0cJ/4UAM6l4+bcN+ke8zIrB8C4s8Ts6uY2fDyh/voG7qnrsxs0Wu7I9wB1Mn9yL0J9/gHoI9fKeQW9/NNt7+T9x1E5jLrh4D488TsKmY2vPzh3tuhe+rKPr2yP8IdQKW8j9yTw73/gAZ0Lp814f5L3WNOZv0QEH+emF3FzIZXQLhP7NJNdWNqvV7ZH+EOoFLeR+7J4d57VQM6lwvNQ2Xu0i3mZNYPAfHnidlVzGx4BYR776BuqhtH9boZEO4AauV85J4c7qPl3eK+WveYk1k/BMSfJ2ZXMbPhlRDuq07prrowuVGvmwHhDqBWzkfuyeH+YCF3uB8/13T740W9Q6VZPwTEnydmVzGz4ZUQ7r2v6666cEivmgPhDqBavkfuyeH+ogZ0Lp824f493WJWZv0QEH+emF3FzIZXRLivntFt2TvzmF41B8IdQLV8j9yTw/31q1rQmVxown2FbjErs34IiD9PzK5iZsMrItx7O3Vb9l54Vy+aA+EOoF6uR+6p4b78nAZ0JlcvNuFexPfZWWb9EBB/nphdxcyGV0a4339W92VteqteMwvCHUC9XI/cU8P9Hg3oXN5ruv1nRd3i3ntAv5O0Qvx5YnYVMxteGeHe+6nuy9ruIg7cCXcANfM8ck8M93eLucX9/Sbcv6B7zMusHwLizxOzq5jZ8AoJ9/FJ3ZixdXrFPAh3ABXzPHJPDPf+axrQuVxqwn1c95iXWT8ExJ8nZlcxs+GdjPw7sSP9A7oxW/sLeb/p5YQ7gIo5Hrk34R55urSqlFvcTzfvvnRiQveYl1k/BMSfJ2ZXMbPhFRLuva1ndGemNuj1MiHcAdTM8cg9MdzXaUDn8knT7W/qFjMz64eA+PPE7CpmNrxSwr2/e1q3ZmjPqF4vE8IdQNX8jtzTwn3khxrQuXzQhPuXdY+ZmfVDQPx5YnYVMxteKeHee1h3ZmmbXi0Xwh1A1fyO3NPCvcBb3NfrHjMz64eA+PPE7CpmNrxiwn3kmG7Nzq5i7jAk3AHUze3IPS3c15/XgM7k/Owt7oX8itUss34IiD9PzK5iZsMrJtx7G3Rrdg7qtbIh3AHUze3IPS3cn9KAzuWzptt/oVvMzawfgr9d1kPqhxyzq5jZ8MoJ99E3dG9WLsf9vd8l63Dnf+sAOPM6ck8K95GXNKBzmb3FvZCHEX/OrB8CTm09MbuKmQ2vnHDv7dC9WdmsV8rHOtx1fQDomNeRe1q4P6MBncvHTbiv0j3mZtYPwf+my6NDzK5iZsMrKNwndunmbMxs0SvlYx3unLgD8OZ05J4U7msLucX96kdNtz9e3F/TZv0QcGrridlVzGx4BYV7/6BuzsY+vVBG1uGu6wNA15yO3JPC/Ukt6Fw+bcL9+7rF7Mz6IeDU1hOzq5jZ8AoK997YKd2dhamSHsVlHO7/q64PAJ3zOXJPCve3NKBzudCE+1bdYnZm/RAQf56YXcXMhldSuPe+rrszMH1Ur5IT4Q6gej5H7inhvrKUW9yvXmzCvaTvsdeZ9UNA/HlidhUzG15R4b56RrfX3tmNepWcCHcA9XM5ck8J941XtKAzea/p9p/oFvMz64eA+PPE7CpmNryiwn1kp26vvUN6kawIdwD1czlyTwn3r2hA5/J+8/ZLd+oW8/st/U7SCvHnidlVzGx4RYV77/4p3V9bk+N6jawIdwBDwOPIPSXcX9GAzqW5xf1XZX0LCsz6ISD+PDG7ipkNr6xw7/1U99fWgbKexEW4AxgCHkfuCeG+7EMN6ExONwfuJ0Z1j/mZ9UNA/HlidhUzG97JCV06q/FJ3WA704X9Qv8E4Q5gCDgcuSeE+3hpt7i/86ZusQBm/RAQf56YXcXMhldYuPcP6Abb2V3WgTvhDmAoOBy5J4T7HRrQubzfHLh/VbdYALN+CIg/T8yuYmbDKyzce1vP6A5bWafrZ0a4AxgK3R+5J4T7qxrQuVxqwn2TbrEAZv0QEH+emF3FzIZXWrj3d+sO2zg2outnRrgDGArdH7nHh/vyUm5xPz97i/tK3WMBvqLfSVoh/jwxu4qZDa+0cO+t0x22cZ+unhvhDmA4dH7kHh/u92hA5/JJ0+2/1C2WwKwfAuLPE7OrmNnwigv3kWO6xXR7ijvsINwBDIfOj9ybcF+lV76tH2pA5/JBE+7FHR5dY9YPwX+hy6NDzK5iZsMrLtx7G3SL6bbp2tkR7gCGRNdH7vHh/roGdC4fN+G+WrdYArN+CIg/T8yuYmbDKy/cR9/QPaZ6tLivjXAHMCy6PnKPDvct5zSgM/moucX9i4U91+w6s34IiD9PzK5iZsMrL9x7O3SPqQ7qyvkR7gCGRcdH7tHh/rAGdC6fNQfuX9MtFsGsHwLizxOzq5jZ8AoM94ldusk0lwf/lSY3hDuAYdHxkXt0uL9UytsvXWhO3FfoFotg1g8B8eeJ2VXMbHgFhnvvCd1kmm/rugUg3AEMjW6P3GPDvf+aBnQuF5sT9wJPjyz7ISD+PDG7ipkNr8RwH7usu0wwPbNF1y0A4Q5gaHR75B4b7us/0oDO5FzT7T8u8hZ3u34IiD9PzK5iZsMrMdx7X9ddptinq5aAcAcwPDo9co8N96c0oHP5tAn3L+gWy2DWDwHx54nZVcxseEWG++oZ3Wa8qfW6agkIdwDDo9Mj99hw/4EGdC4XmnDfrlssw5f1O0krxJ8nZlcxs+EVGe69ndO6z2hHdc0iEO4AhkiXR+5NuA/4LPR3S7nF/crsLe5Ffnvt9c36ISD+HDG7itkNr8xwv39K9xnr7P26ZhGMw/1/1vUBwFGXR+6R4b7pvBZ0Ju813f52mbe42x38BcSfJ2ZXMbPhlRnuvZ/qPmPt1RXLQLgDGCL9Do/cI8P9SQ3oXN5vwv0B3WIZ7A7+AuLPEbOrmN3wCg338UndaJzJcV2xDIQ7gGHS4ZF7ZLi/pQGdy6Um3DfqFgth1g8B8eeJ2VXMbHiFhnv/QLu73F94V1csA+EOYKh0d+QeF+4rn9GAzuR08+5LJ0Z1j2WwO/gLiD9HzK5idsMrNNx7W8/oTmOc2arrFYJwBzBUujtyjwv3Nae1oDP5pOn2H+kWS2HWDwHx54nZVcxseKWGe393myP33YX+ThDhDmDIdHbkHhfuD2hA5/JBE+536xZLYdYPAfHnidlVzGx4xYb7w23CfZ0uVwrCHcBw6ezIPS7cX9GAzuXj5laZtbrFUpj1Q0D8eWJ2FTMbXqnh3hs5ll7ux0Z0tVIQ7gCGS2cPlokK94kPNaAzOd8cuL9T7Pchs34IiD9PzK5iZsMrNtx7G3Srg7tP1yoG4Q5gyHR15B4V7o+Vcov7Z024/0K3WAyzfgiIP0/MrmJmwys33Eff0L0O6o1iDzoIdwDDpqsj96hwv1MDOpfZW9wf1i0Ww6wfAuLPE7OrmNnwyg333g7d66C26UrlINwBDJuOjtybcF+v15vPqxrQuXzchPsq3WIxzPoh+Fu6PDrE7CpmNryCw31il252MI8u05XKQbgDGDYdHbnHhPvyQm5xv3qu6fYfl/psM8N+CDi19cTsKmY2vILDvf+EbnYwB3WhghDuAIZON0fuMeF+zxVN6Ew+bcL9+7rFcpj1Q8CprSdmVzGz4Z0s+Hh67LLudhCXx3Sdgiwj3AEMm26O3GPC/UUN6FwuNOFe6rsAWvZDwKmtJ2ZXMbPhlRzuva/rbgfxbV2lJIQ7gOHTyZF7TLi/rgGdydWLTbgv1y2Ww6wfAk5tPTG7ipkNr+hwXz2j213cqXJ/I4hwBzCUOjlyjwj3Vee0oDN5r+n2n+gWC2LWDwHx54nZVcxseEWH+8hO3e7i9ukiRSHcAQyhLo7cI8L9EQ3oXN5v3jb1Tt1iQcz6ISD+PDG7ipkNr+hw790/pftdzNQAf8dnRLgDGEJdHLlHhPsPNaBzudScuI/rFgti1g8B8eeJ2VXMbHhlh3vvp7rfxezUFcpCuAMYRh0cuQ8e7v3XNKAzOT17i/uo7rEgZv0QEH+emF3FzIZXeLiPT+qGF3Z2o65QFsIdwDDq4Mh98HBfXcot7p803f6mbrEkZv0QEH+emF3FzIZXeLj3/+WpKD/VBQpDuAMYSvZH7oOH+10a0Lm834T7l3WLJfmqfidphfjzxOwqZja8wsM91oj+QWEIdwBDyf7IffBwf0kDOpfZW9w36RZLYtYPAfHnidlVzGx4QxbupTMO9/9F1weAPMyP3AcO92JucT/fPFPmxErdY0nM+iEg/jwxu4qZDY9wd0W4AxhO5kfuA4f72o+0oDOZvcX9l7rFopj1Q0D8eWJ2FTMbHuHuinAHMKSsj9wHDvenNKBz+aAJ9/t0i0Ux64eA+PPE7CpmNjzC3RXhDmBYGR+5Dxru/R9oQOfycRPuq3WPRTHrh4D488TsKmY2PMLdFeEOYFgZH7k34b5WryNGntGAzuSjptu/2Nc9FsWsHwLizxOzq5jZ8Ah3V4Q7gKFle+Q+aLjff14LOpPPmnD/mm6xLGb9EBB/nphdxcyGR7i7ItwBDC3bI/dBw/3LGtC5XGjCfYVusSxm/RAQf56YXcXMhney5DdmHj6jhDuAoWV65D5ouL+lAZ3J1YtNuN+rWyyLWT8ExJ8nZlcxs+ER7q4IdwDDy/TIfcBwHy3lFvdzTbf/uOxb3O36IfhbhX+1w4XZVcxseIS7K8IdwBCzPHIfMNzHT2tBZ/JpE+5f0C0WxqwfAk5tPTG7ipkNj3B3RbgDGGKWR+4DhvsDGtC5zN7ivl23WBizfgg4tfXE7CpmNjzC3RXhDmCYGR65Dxbu/Vc0oDO5MnuL+4TusTBm/RBwauuJ2VXMbHiEuyvCHcAwMzxyb8J9k15jjokPtaAzea/p9rd1i6Ux64fgv9bl0SFmVzGz4RHurgh3AEPN7sh9sHB/8IoWdCbvN+H+gG6xNGb9EBB/nphdxcyGR7i7ItwBDDW7I/fBwv3Fq1rQmVxqwn2jbrE0T+p3kla43cITs6uY2fAId1eEO4DhZnbkPli4v6oBncnpXzXhXvw3VbN+CDi19cTsKmY2PMLdFeEOYLiZHbkPFO5jpdzi/knT7T/SLRbHrB8C4s8Ts6uY2fAId1fW4c6znAAUxurIfaBwv0cDOpcPmnC/W7dYHLN+CIg/T8yuYmbDI9xdWYe7rg8AmVkduQ8U7i9qQOfycXOrzMJPryyBWT8ExJ8nZlcxs+ER7q6sw50TdwClMTpyHyTc331dAzqT882B+zsjusfimPVDQPx5YnYVMxse4e7KOtx1fQDIzejIfZBwX3VOCzqTz5pw/4VusTxm/RAQf56YXcXMhke4u7IOd07cARTH5sh9gHB/9xEN6EyuzN7i/rDusTxm/RAQf56YXcXMhke4u7IOd10fALKzOXIfINx7L2lB5/JxE+6rdIvlMeuHgPjzxOwqZjY8wt2Vcbj/57o+AORncuTehPv9uvpNXtOAzuRc0+2PV/BjULN+CIg/T8yuYmbDI9xdGYc7J+4ACmRy5D5AuK/+SAs6k0+bcP+ubrFAd+t3klaIP0/MrmJmwyPcXVmHewWHOwCWHosj9wHC/SkN6FwuNOG+VbdYILN+CIg/T8yuYmbDI9xdGYc7t8oAKJHFkfsA4V7KLe5XLzbhvly3WCCzfgiIP0/MrmJmwzu5UpdGh1YS7gCWAIMj98XDffQZLehM3mu6/We6xRKZ9UNA/HlidhUzGx7h7opwB7AUGBy5Lx7um85rQWfyfhPud+oWS2TWDwHx54nZVcxseIS7K+Nw55dTAZSp/ZH74uH+pAZ0LpeacB/XLZbIrB8C4s8Ts6uY2fAId1fG4c6JO4AytT9yXzzc39KAzuT0r351I9yX6RZLZNYPAfHnidlVzGx4hLsrwh3A0tD6yL0J9426cqNfyi3unzQH7m/qFotk1g8B8eeJ2VXMbHiEuyvCHcDS0PrIfdFw33haCzqT2Vvcv6xbLJJZPwT/sS6PDjG7ipkNj3B3RbgDWCLaHrkvGu5f0YDO5MrsLe6bdItFMuuHgFNbT8yuYmbDI9xdEe4Aloi2R+6LhvsrWtCZnG/ucD9Rx/dTs34IOLX1xOwqZjY8wt0V4Q5gqWh55L5YuE98qAWdx9XZW9x/qVssk1k/BJzaemJ2FTMbHuHuinAHsFS0PHJfLNzHS7nF/YMm3O/TLZbJrB8CTm09MbuKmQ2PcHdFuANYMtoduS8W7ndoQOfycRPuq3WLZTLrh4D488TsKmY2PMLdFeEOYMlod+S+WLi/qgGdyUdNtz/e1y2WyawfAuLPE7OrmNnwCHdXhDuApaPVkfsi4b6slFvcP23C/Wu6xUKZ9UNA/HlidhUzGx7h7opwB7B0LNcYj7FIuD+oBZ3LheahMit0i4Uy64eA+PPE7CpmNjzC3RXhDmAJaXPkvki4v6gBncnVi82J+726xUKZ9UNA/HlidhUzGx7h7opwB7CEtDlyXyTcX7+qCZ3Huabbf6w7LJVZPwTEnydmVzGz4RHurgh3AEvIyD/WHB/cwuE+dk4LOo8rzS3u7/ymbrFUZv0QEH+emF3FzIZHuLsi3AEsJS0eLNOE+xpdM3hECzqXC82J+3bdYqnM+iEg/jwxu4qZDY9wd0W4A1hK+ulH7guH+w81oDM5PXuL+4RusVRm/RAQf56YXcXMhke4uyLcASwp6UfuC4Z7/7VCbnF/r+n2t3WLxTLrh4D488TsKmY2PMLdFeEOYGlJPnJfMNxXfaQFncn7Tbg/oFssllk/BMSfJ2ZXMbPhEe6uCHcAS8uYBvmgFgz3h69oQWdyqQn3+X+HtkRm/RAQf56YXcXMhke4u7IO9xG9AACUJfXIfcFwf0kDOpPTzbsvnRjVLRbLrB8C4s8Ts6uY2fAId1fW4a7rA0BhUo/cFwr3/mta0Jl80nT7j3SL5TLrh4D488TsKmY2vJOc2XoasQ33/0nXB4DSJB65LxTu60u5xf2DJtzv1i2W6z79TtIK8eeJ2VXMbHiEuyvjcOfEHUDxEo/cm3Af1/X+//buL8bys67j+MwsbXct/tm2UgVJurT8abUCMbFXEJGCFySGpkbFvVEDiRIplwRiorE23vgPQYWbklACBmKLEFroBZbSWglp0JBstekSshfrXuy/7ma6f0PNnN3nzDnfOWfmN4fvPr/fs/N69YY03enz20+z583TX2eXlpb2x4Duy9kS7nvjEYfr54/Ej5Ifx28sx6/PlWO7hqWNJ9yryg536wGDt9iV+2bh/vUY0P1YPVa6/el2fjFeSbv4G3FrW5HtGpY3nnCvKjncvSoDDN9iV+6bhPvKfQP5Lu4XSrh/Lx5xwNIu/kb+Ln55riDbNSxtPOFeVXK43+PfcwHDt9CV+ybhftuxWND9WB2/4n57POJw5V38jbi1rch2DcsbT7hXlRzubtyBBix05b5JuN8bC7ovJ0u43xmPOGBp/TDi1rYm2zUsbTzhXlVyuLtxB1qwyJX7JuH+zRjQPTlauv3uhn4tXk7rhxHxV5HtGpY3nnCvKjnc3bgDLbgmVnkH88N9932xoHtyvoT7J+MRhyytH0bEX022a1jaeMK9KuEO7EQLXLnPD/efOhwLuifHS7jfFY84YHkXfyPiryLbNSxvPOFelXAHdqIFrtznh/stMaB7cnH8ivueeMQhS+uHEfFXk+0aljaecK8qOdy94w60YftX7vPD/UuxoHtyqHT7s/GEQ5Z38Tci/iqyXcPyxhPuVSWHuxt3oA3bv3KfG+77XooF3ZMTJdxviEcctLR+GBF/NdmuYWnjCfeqhDuwM237yr2E+zvjV3rnaizonpwu4b7h/1sMWlo/jIi/mmzXsLTxhHtVwh3YmfbFMN/K3HC/IQZ0Tw6/WMJ9VzzioKX1w4j4q8l2DUsbT7hXJdyBnWnlM7HMtzA33B+OBd2Tc6XbH4snHLa0fhgRfzXZrmFp4wn3qoQ7sENt97dPnRfu1wzlFfdT5cb9jnDCgUvrhxHxV5PtGpY2nnCvSrgDO9U2r9znhfurYkD3ZfyK+23hhAOX1g8j4q8m2zUsbTzhXpVwB3aqbX5jmXnh/lAM6J4cK91+cHc44cCl9cOI+KvJdg1LG0+4VyXcgR1re1fu88L9q7Gge3KhdPt/hQMOXVo/jIi/mmzXsLTxhHtVwh3Ysbb3jWXmhPv1R2NB9+RUCff90wccvLR+GBF/NdmuYWnjCfeqhDuwc23ryn1OuL81BnRfzpZwf+X0AQcvrR9GxF9NtmtY2njCvSrhDuxc27pynxPuj8eA7smZ0u2vXZ4+4OCl9cPIr8QvzxVku4aljSfcqxLuwA62nSv32eG+/Egs6H5cPF/C/denzteAtH4YEX812a5haeMJ96qEO7CDbefKfXa4v/JMTOieHC/hft3U+RqQ1g8j4q8m2zUsbTzhXpVwB3aybVy5zw73m2JA9+TiyRLuN0+drwFp/TAi/mqyXcPSxhPuVQl3YCfbxpX77HD/Qizonhwqv23qU1PHa0FaP4yIv5ps17C08YR7VcId2NG6X7nPDPcDz8SC7smJy93+9Acnj9eEtH4YEX812a5haeMJ96qEO7Cj7Yp9PtfMcN97LBZ0T8avuL998nhNSOuHEfFXk+0aljaecK9KuAM72sqnYqDPU8L9dRM/enl/DOieHC5vyhzcN3G8NqT1w4j4q8l2DUsbT7hXlRzuH4lfH2DYOr/lPivcl74eC7onh0q3PzF5ujak9cOI+KvJdg1LG0+4VyXcgZ2t85X7rHBfuS8WdD9WyyvuB2+ZOF0j0vphRPzVZLuGpY0n3KtKDnevygCt6XrlPivcf+FwTOienC7hfuvE6RqR1g8j4q8m2zUsbbwftPabNbdtOTfc3bgDrVnueOU+K9zviAHdk2PjV9yvnThdI26KnyQ/FvFXk+0aljaecK9KuAM73b6PxkafaVa4fzMWdE/OlW5/cuJwrUjrhxHxV5PtGpY2nnCvSrgDO163K/cZ4b7rpVjQPTlVwv1nJ5+rEWn9MCL+arJdw9LGE+5VCXdgx9vV6cp9RrjfuBoLuidnS7jvnXyuRqT1w4j4q8l2DUsbT7hXJdwBOl25bwz35VtiQPfkTOn2p1v89g5p/TAi/mqyXcPSxhPuVQl3gE5X7hvDfenhWNA9uVDC/XuTT9WKtH4Y+b+vXPb5r3z+sgc+/8DY5x544HNj93/u/uJr99//tbFPT/jEpz8x9v61PyZ8+f1fXvfhL3947D1rf6z72Nof6979sXdPeOO73zjlAx/4g2l/PuVNk978pjeve8uEd0x6dM1n110fF1ic7drdLm884V6VcAfodOW+MdyvHcgr7qvjV9xvn3qqRqT1Q1dHnj8S/1R3nX/okeePHOn6F0+eqNsPmvEMM/7UbJ+NCyzOdu1ulzeecK9KuAN0unIfh/v4U+p1saD7crKE+53Tj9WGtH6gm0fjAouzXWWJ2+WNJ9yrEu4Ana7cN964PxQDuidHS7ff3eQHaFo/0E1i/NmussTt8sYT7lUJd4Clpd1bX7mXcH/V+AcN5RX38yXcPzn1TK1I6we6eUdcYHG2qyxxu7zxhHtVwh2g05X7hnDfczQWdE+Ol3C/a/qZGpHWD3STGH+2qyxxu7zxhHtVwh1gaWlpZcsr9w3h/qoY0D1ZHb/ivmf6mRqR1g90kxh/tqsscbu88YR7VcIdYC3cH4yhHsVwPzCUV9wPlW5/NjxTI9L6gW7eEhdYnO0qS9wubzzhXpVwB1izb6sr9xjuS4/Egu7JiRLuN0w/USvS+oFuEuPPdpUlbpc3nnCvSrgDrNnyyj2G+/VnYkH35HQJ9xvDIzUirR/oJjH+bFdZ4nZ54wn3qoQ7wMhW38s9hvurV2NB9+PwiyXcd4UnakRaP9DNm+MCi7NdZYnb5Y0n3KsS7gAjy1tcuYdwX3k8FnRPzpVufyw+USNuj58kXFmJ8We7yhK3yxtPuFcl3AEuuXbzK/cQ7svPxILuyaly435HfKBGpPUD3STGn+0qS9wubzzhXlV2uFsPaNbmV+4h3F8zuFfcb4vP04i0fqCbN8UFFme7yhK3yxtPuFeVHe7x6wM0Y/PfPjWE+/4Y0D05Vrr94O74PI1I6we6SYw/21WWuF3eeMK9quRw/3j8+gDt2PTKfTrcl78QC7onF0q3vyI+TSvS+oFuEuPPdpUlbpc3nnCvKjnc3bgDDdv0yn063FfuiwXdk1Ml3PfHp2lFWj/QTWL82a6yxO3yxhPuVWWH+0r8GwC0Y7Mr9+lw33ssFnRPzpZwf2V8mFak9QPdvDcusDjbVZa4Xd54wr2q5HD3qgzQsuUvxlxfNw730afUvTGge3KmdPtrm/3wTOsHukmMP9tVlrhd3njCvSrhDrBukyv36Rv3b8aC7sn5Eu5viI/SjLR+oJvE+LNdZYnb5Y0n3KtKDnfvuANNW5l/5V7C/a1rf93uobzifryE+3XxUZqR1g908968zrJdZYnb5Y0n3KtKDnc37kDb5l+5T4X7rauxoPtx8WQJ95vjkzQjrR/o5gNxgcXZrrLE7fLGE+5VCXeASXOv3KfC/ZdjQffkUPltU5+Kz9GOtH6gm8T4s11lidvljSfcq0oOd6/KAI2be+U+Fe5figXdkxPlwv2D8TnakdYPdJMYf7arLHG7vPGEe1XJ4e7GHWjdvCv3yXDf9VIs6J6MX3F/e3yMdqT1A928MS6wONtVlrhd3njCvSrhDjDl0Vjsl02G+40DecX9cHlT5uC++BjtSOsHukmMP9tVlrhd3njCvSrhDjBl3jeWmQz3n44F3ZNDpdufiE/RkLR+oJvXxwUWZ7vKErfLG0+4VyXcAaZc+52Y7JdMhvvDsaD7sTp+xf2W+BQNeXX8JOHKSow/21WWuF3eeMK9KuEOMO3A7Cv3iXC/ZiivuJ8u4X5rfIiGpPUD3STGn+0qS9wubzzhXpVwB5i2MvvKfSLcXxcDuifHxq+4XxsfoiFp/UA3ifFnu8oSt8sbT7hXJdwBgtlvuU+E+0OxoHtyrnT7k/ERWpLWD3Tz+pU4wcJsV1nidnnjCfeqhDtANPPKfSLcvxoLuienSrjfG5+gJWn9QDe/FBdYnO0qS9wubzzhXpVwB4iWvxWrfSrc9xyNBd2TsyXc98YnaElaP9BNYvzZrrLE7fLGE+5VCXeAaPesK/f1cH9rDOienCnd/nTivz+vL60f6CYx/mxXWeJ2eeMJ96qEO8AGKzOu3NfD/fFY0D25UML9e/H8TUnrB7r567jA4mxXWeJ2eeMJ96qyw916wNVgxpX7erg/Egu6J8dLuN8Uj9+UtH6gm/fEBRZnu8oSt8sbT7hXlR3u8esDtGjGW+7jcL/zTCzoflw8Wb4b5J3x+E1J6we6+f24wOJsV1nidnnjCfeqssPdesBVYeOV+zjcb48F3ZOj5cL9qbZ/5U3rB7pJjD/bVZa4Xd54P4hfmSspO9zj1wdo07fnhvsXYkH35HwJ90/Gs7clrR/o5sNxgcXZrrLE7fLGE+51JYd72/c+AMWGK/cS7vufiQXdk/Er7nfFs7clrR/oJvHW1naVJW6XN55wrys33P8tfnmARsUr9xLuPzmQV9xXT5Zw3xOP3pa0fqCbX4wLLM52lSVulzeecK9LuAPMEq/cS7j/z2pM6H4cKt3+bDx5Y9L6gW4S4892lSVulzeecK8rN9y94w5cNcKVewn307Gge3KihPsN8eCNSesHukmMP9tVlrhd3njCva7ccHfjDlw19s4O9/tiQffkdAn3G+PBG3Nd/CThykqMP9tVlrhd3njCvS7hDjDb9JX75XD/0eFY0P04XL6J+8Fd8dyNSesHuvmHuMDibFdZ4nZ54wn3unLD3asywFVj+eZZ4T6UN2XOlW5/LJ67Mctp/UA3efFnu9rytkscT7jXlRvubtyBq8fKf8wI9xMD+W9TT5Ub9zvisVuT1g90kxh/tqsscbu88YR7XcIdYLYDU1ful8P9pVjQPTlbbtxvi8duTN7FH938U5xgYbarLW+7xPGEe13CHWCO5ckr90vhfnIgF+7HSrcfXImnbk1aP9BNYvzZrrLE7fLGE+51CXeAOVae2xDux2NB9+RC6fZXxEM3J60f6OZv4wKLs11lidvljSfc6xLuAPOsfDeG+/lY0D05VcJ9fzxzc9L6gW4S4892lSVulzeecK9LuAPMc2Diyv1SuB+NBd2P1fEr7q+JZ25OWj/QzT/GBRZnu8oSt8sbT7jXJdwB5lpev3IfhfvJizGh+3G0fE+Zu5fjkZuT1g90kxh/tqsscbu88YR7XcIdYL71K/e1cH9xKK+4ny8X7m+IB25PWj/QTWL82a6yxO3yxhPudQl3gE18ZurGfSivuB8v4X5dPG970vqBbu6JCyzOdpUlbpc3nnCvS7gDbOK5j06G+5lY0P24eLKE+/XxvO1J6we6SYw/21WWuF3eeMK9LuEOsJlPTYT72YG84n6odPt/xtM2KK0f6OaevG/9b7vKErfLG0+41yXcATZ1+cp9LdxPxYLuyYkS7h+Mh21QWj/Qzd/EBRZnu8oSt8sbT7jXJdwBNvXgerhfiAXdk9Plm8q8PR62QWn9QDeJ8We7yhK3yxtPuNcl3AE2deCL43A/Fgu6H6ul2w/ui4dtUFo/0M1H4gKLs11lidvljSfc6xLuAJtavnTl/sODB8/Ggu7JuRLuT8SztiitH+gmMf5sV1nidnnjCfe6csP9X+KXB2jf6Mr9hwN8xf2WeNIWpfUD3STGn+0qS9wubzzhXpdwB9jCdy6H+7lY0D05XcL91njSFqX1A918PC6wONtVlrhd3njCvS7hDrCVb43C/cWBvOJ+bPyK+7XxoC1K6we6SYw/21WWuF3eeMK9LuEOsJXvfHQt3E/Hgu7JudLtT8ZzNimtH+gm8b9Gs11lidvljSfc6xLuAFv69lq4n4gF3ZNTJdzvjcdsUlo/0E1i/NmussTt8sYT7nUJd4AtPffCCy+/OJRX3M+WcN8bj9mktH6gm8RPattVlrhd3njCvS7hDrClA9994eUXD8eC7seZ0u1PJ/725z1K6we6Sfyktl1lidvljSfc6xLuAFt77oWXT1+MCd2PCyXcfyIesk1p/UA3iZ/Utqsscbu88YR7XcIdoIMHXx7KK+7HS7jfFM/Ypuv/MPi1eX57o78Y+/ex353pbTO8623vmuHPgu+P/OvIn076xtjvBL+30R8HHwre96H3RX8U/NYMfxL8/YS/mrT+Sf2VuMDibNfudkt71icbzXHpZ3/0czv6ifz+6Gfs0s/QpZ+EtUcdPdqlw6+d8vnnnz8i3KvanRvumf9IAQzIgR8eigXdj4sny3eDvDOeke05EP/ENi1v+B9zLfC36vBDOvwlV6sf99Ft102XY14dr+y1Y2Xrf2YBWLp1NSZ0P46WC/en/PINAAAb/e8w3nE/X8L9L+MBAQCApaWl/z40BKdLuN8VzwcAAKy55mcOHvxR6ebe7YnHAwAA1izvfnI44f5sPB0AAHDZzcMJ99+MZwMAAIqfG0y43xiPBgAAFHsGE+674tEAAICxf44B3Y+nH4sHAwAA1t0ZE3qj1ya4eyu/Gg8GAAAAAAAAAAAAAAAAAAAAAAAAAAAAAAAAAAAAAAAAAAAAAAAAAAAAAAAAAAAAAAAAAAAAAAAAAAAAAAAAAAAAAAAAAAAAAAAAAAAAAAAAAAAAAAAAAAAAAAAAAAAAAAAAAAAAAAAAAAAAAAAAAAAAAAAAAAAAAAAAAAAAAAAAAAAAAAAAAAAAAAAAAAAAAAAAAAAAAAAAAAAAAAAAAAAAAAAAAAAAAAAAAAAAAAAAAAAAAAAAAAAAAAAAAAAAAAAAAAAAAAAAAAAAAAAAAAAAAAAAAAAAAAAAAAAAAAAAAAAAAAAAAAAAAAAAAAAAAAAAAAAAAAAAAAAAAAAAAAAAAAAAAAAAAAAAAAAAAAAAAAAAAAAAAAAAAAAAAAAAAAAAAAAAAAAAAAAAAAAAAAAAAAAAAAAAAAAAAAAAAAAAAAAAAAAAAAAAAAAAAAAAAAAAAAAAAAAAAAAAAAAAAAAAAAAAAAAAAAAAAAAAAAC1/D/GHJMlcc+CZQAAAABJRU5ErkJggg==;" parent="1" vertex="1">
          <mxGeometry x="279" y="288.96" width="70" height="20.07" as="geometry" />
        </mxCell>
        <mxCell id="yNoe0W8MWd9mktTDlJa6-8" value="&lt;font style=&quot;font-size: 14px;&quot;&gt;llama.cpp&lt;/font&gt;" style="text;html=1;strokeColor=none;fillColor=none;align=center;verticalAlign=middle;whiteSpace=wrap;rounded=0;fontStyle=1" parent="1" vertex="1">
          <mxGeometry x="283" y="302" width="60" height="30" as="geometry" />
        </mxCell>
      </root>
    </mxGraphModel>
  </diagram>
</mxfile>
